<?xml version="1.0" encoding="utf-8"?>
<!-- Generator: Adobe Illustrator 16.0.0, SVG Export Plug-In . SVG Version: 6.00 Build 0)  -->
<!DOCTYPE svg PUBLIC "-//W3C//DTD SVG 1.1//EN" "http://www.w3.org/Graphics/SVG/1.1/DTD/svg11.dtd">
<svg version="1.1" id="Layer_1" xmlns="http://www.w3.org/2000/svg" xmlns:xlink="http://www.w3.org/1999/xlink" x="0px" y="0px"
	 width="640px" height="480px" viewBox="0 0 640 480" enable-background="new 0 0 640 480" xml:space="preserve">
<g>
	<g>
		<g>
			<polyline fill="none" stroke="#E99A45" stroke-width="2" stroke-linecap="round" stroke-linejoin="round" points="284,205 
				284,275 298,275 359,275 			"/>
			<g>
				<path fill="#E99A45" d="M279.2,212.037c0.232,0.148,0.542,0.08,0.69-0.153l4.109-6.453l4.109,6.453
					c0.148,0.233,0.458,0.302,0.69,0.153s0.3-0.459,0.153-0.69l-4.531-7.115C284.33,204.087,284.171,204,284,204
					s-0.33,0.087-0.422,0.231l-4.531,7.115c-0.053,0.083-0.078,0.176-0.078,0.268C278.969,211.779,279.051,211.941,279.2,212.037z"
					/>
			</g>
			<g>
				<path fill="#E99A45" d="M351.963,279.8c-0.148-0.232-0.079-0.542,0.154-0.69l6.452-4.109l-6.452-4.109
					c-0.233-0.148-0.303-0.458-0.154-0.69s0.46-0.3,0.691-0.153l7.114,4.531C359.912,274.67,360,274.829,360,275
					s-0.088,0.33-0.231,0.422l-7.114,4.531c-0.084,0.053-0.177,0.078-0.269,0.078C352.221,280.031,352.059,279.949,351.963,279.8z"
					/>
			</g>
		</g>
	</g>
	<rect x="294" y="211" fill="#E99A45" width="9" height="63"/>
	<rect x="309" y="254" fill="#E99A45" width="9" height="20"/>
	<rect x="324" y="234" fill="#E99A45" width="9" height="40"/>
	<rect x="339" y="228" fill="#E99A45" width="9" height="46"/>
</g>
</svg>
