<?xml version="1.0" encoding="utf-8"?>
<!-- Generator: Adobe Illustrator 16.0.0, SVG Export Plug-In . SVG Version: 6.00 Build 0)  -->
<!DOCTYPE svg PUBLIC "-//W3C//DTD SVG 1.1//EN" "http://www.w3.org/Graphics/SVG/1.1/DTD/svg11.dtd">
<svg version="1.1" id="Layer_1" xmlns="http://www.w3.org/2000/svg" xmlns:xlink="http://www.w3.org/1999/xlink" x="0px" y="0px"
	 width="75px" height="75px" viewBox="0 0 75 75" enable-background="new 0 0 75 75" xml:space="preserve">
<g>
	<g>
		<path fill-rule="evenodd" clip-rule="evenodd" fill="#3C3C3C" d="M40.689,0.9c-0.002,1.848,0.018,3.699-0.018,5.547
			c-0.01,0.502,0.117,0.908,0.5,1.184c0.963,0.689,1.098,1.549,0.906,2.689c-0.441,2.658-0.721,5.344-1.07,8.018
			c-0.021,0.168-0.061,0.332-0.1,0.547c-0.42,0-0.828,0-1.314,0c0,1.529,0,3.006,0,4.504c-1.08,0.219-2.342,0.037-2.643,1.445
			c-0.15,0.707-0.123,1.426,0.643,1.969c0.127-0.314,0.197-0.609,0.355-0.846c0.143-0.215,0.381-0.506,0.578-0.508
			c0.199-0.002,0.416,0.299,0.596,0.494c0.082,0.088,0.092,0.242,0.137,0.367c0.316,0.883,0.42,0.961,1.289,0.529
			c0.592-0.295,1.115-0.729,1.705-1.123c-0.09,1.348-0.158,2.678-1.609,3.4c-0.105,0.051-0.162,0.395-0.105,0.553
			c0.391,1.082,0.813,2.148,1.227,3.223c1.078,2.795,2.17,5.588,3.225,8.393c0.26,0.695,0.662,1.217,1.254,1.666
			c3.092,2.352,6.158,4.732,9.234,7.102c0.086,0.066,0.182,0.121,0.271,0.182c-0.023,0.041-0.047,0.08-0.072,0.119
			c-11.426,0-22.852,0-34.446,0c0.724-0.568,1.316-1.045,1.92-1.512c2.795-2.145,5.587-4.293,8.392-6.426
			c0.463-0.352,0.685-0.807,0.875-1.334c1.162-3.246,2.35-6.486,3.529-9.727c0.27-0.738,0.532-1.479,0.806-2.24
			c-0.284-0.123-0.516-0.197-0.727-0.314c-0.855-0.473-1.337-1.213-1.415-2.18c-0.093-1.172-0.092-2.355,0.409-3.445
			c0.2-0.438,0.62-0.771,0.935-1.156c0.087-0.107,0.227-0.227,0.229-0.34c0.02-0.9,0.01-1.805,0.01-2.77c-0.457,0-0.861,0-1.295,0
			c-0.148-1.121-0.285-2.184-0.43-3.246c-0.287-2.129-0.592-4.258-0.852-6.391c-0.033-0.27,0.075-0.67,0.267-0.832
			c0.938-0.789,1.31-1.717,1.208-2.963c-0.123-1.52-0.053-3.053-0.065-4.578c0.378,0,0.754,0,1.132,0c0,1.605,0,3.211,0,4.666
			c0.653-0.063,1.188-0.158,1.72-0.152c0.55,0.006,1.101,0.109,1.679,0.174c0-1.488,0-3.088,0-4.688
			C39.934,0.9,40.311,0.9,40.689,0.9z M43.602,40.645c-0.059-0.252-0.072-0.385-0.119-0.502c-1.348-3.461-2.711-6.916-4.035-10.385
			c-0.258-0.674-0.768-0.354-1.178-0.449c-0.398-0.092-0.465,0.211-0.563,0.475c-1.152,3.09-2.305,6.18-3.453,9.271
			c-0.14,0.377-0.257,0.762-0.44,1.309c0.394-0.271,0.643-0.434,0.882-0.609c1.162-0.865,2.329-1.727,3.479-2.611
			c0.271-0.209,0.455-0.223,0.727-0.002c0.537,0.439,1.107,0.844,1.666,1.26C41.543,39.125,42.521,39.848,43.602,40.645z
			 M37.922,11.35c0.842-0.008,1.574-0.76,1.563-1.605c-0.01-0.848-0.76-1.58-1.6-1.566c-0.855,0.018-1.576,0.756-1.563,1.605
			C36.334,10.629,37.078,11.357,37.922,11.35z"/>
		<path fill-rule="evenodd" clip-rule="evenodd" fill="#3C3C3C" d="M24.857,67.746c0-5.207,0-10.406,0-15.645
			c8.979,0,17.93,0,26.926,0c0,5.219,0,10.432,0,15.67c-1.096,0-2.166,0-3.322,0c0-0.24,0-0.457,0-0.676
			c0-3.66-0.014-7.32,0.016-10.98c0.006-0.594-0.178-0.725-0.734-0.715c-1.83,0.035-3.66,0.027-5.49,0.006
			c-0.449-0.006-0.576,0.133-0.576,0.576c0.016,3.68,0.01,7.357,0.01,11.039c0,0.225,0,0.449,0,0.725
			C36.067,67.746,30.48,67.746,24.857,67.746z M38.273,62.166c0-2.295,0-4.492,0-6.691c-0.08-0.023-0.133-0.053-0.184-0.053
			c-2.412-0.006-4.824,0.002-7.236-0.014c-0.436-0.002-0.421,0.258-0.421,0.555c0.003,1.885,0.017,3.77-0.009,5.654
			c-0.006,0.469,0.167,0.563,0.592,0.557c1.695-0.021,3.393-0.008,5.088-0.008C36.816,62.166,37.526,62.166,38.273,62.166z"/>
	</g>
	<g>
		<path fill="#3C3C3C" d="M37.5,3C56.523,3,72,18.477,72,37.5S56.523,72,37.5,72S3,56.523,3,37.5S18.477,3,37.5,3 M37.5,0
			C16.79,0,0,16.791,0,37.5C0,58.211,16.79,75,37.5,75C58.211,75,75,58.211,75,37.5C75,16.791,58.211,0,37.5,0L37.5,0z"/>
	</g>
</g>
</svg>
