<?xml version="1.0" encoding="utf-8"?>
<!-- Generator: Adobe Illustrator 16.0.0, SVG Export Plug-In . SVG Version: 6.00 Build 0)  -->
<!DOCTYPE svg PUBLIC "-//W3C//DTD SVG 1.1//EN" "http://www.w3.org/Graphics/SVG/1.1/DTD/svg11.dtd">
<svg version="1.1" id="Layer_1" xmlns="http://www.w3.org/2000/svg" xmlns:xlink="http://www.w3.org/1999/xlink" x="0px" y="0px"
	 width="75px" height="75px" viewBox="0 0 75 75" enable-background="new 0 0 75 75" xml:space="preserve">
<g>
	<g>
		<path fill="none" d="M37.45,73.5C17.633,73.5,1.505,57.322,1.5,37.437C1.493,17.655,17.579,1.534,37.36,1.5
			c20.272,0,36.121,15.756,36.14,35.871c0.017,19.88-16.119,36.088-35.97,36.129H37.45z"/>
		<path fill="#3C3C3C" d="M37.422,3c9.313,0,18.015,3.554,24.505,10.007C68.413,19.457,71.991,28.11,72,37.371
			c0.008,9.268-3.564,17.964-10.058,24.486C55.45,68.379,46.778,71.98,37.526,72H37.45C18.459,72,3.005,56.495,3,37.437
			c-0.003-9.236,3.555-17.89,10.019-24.368C19.483,6.591,28.128,3.016,37.362,3H37.422L37.422,3 M37.421,0c-0.021,0-0.042,0-0.063,0
			C16.608,0.035-0.007,16.686,0,37.437C0.006,58.209,16.754,75,37.45,75c0.026,0,0.057,0,0.082,0
			C58.319,74.957,75.017,58.186,75,37.369C74.981,16.556,58.325-0.001,37.421,0L37.421,0z"/>
	</g>
</g>
<path fill="none" stroke="#3C3C3C" stroke-width="3" stroke-miterlimit="10" d="M59.683,50.032c0,3.295-2.039,6.227-5.209,8.106
	c-0.734,0.435-1.104,6.315-1.947,6.629c-1.787,0.666-4.219-4.467-6.34-4.467c-7.453,0-13.496-4.598-13.496-10.27
	c0-5.674,6.041-10.271,13.496-10.271S59.683,44.359,59.683,50.032z"/>
<g>
	<path fill="#3C3C3C" d="M40.526,51.318c0-0.777,0.524-1.323,1.26-1.323c0.734,0,1.238,0.546,1.238,1.323
		c0,0.756-0.481,1.322-1.26,1.322C41.03,52.641,40.526,52.074,40.526,51.318z"/>
	<path fill="#3C3C3C" d="M44.872,51.318c0-0.777,0.525-1.323,1.26-1.323s1.238,0.546,1.238,1.323c0,0.756-0.482,1.322-1.26,1.322
		C45.376,52.641,44.872,52.074,44.872,51.318z"/>
	<path fill="#3C3C3C" d="M49.22,51.318c0-0.777,0.523-1.323,1.26-1.323c0.734,0,1.238,0.546,1.238,1.323
		c0,0.756-0.482,1.322-1.26,1.322C49.724,52.641,49.22,52.074,49.22,51.318z"/>
</g>
<path fill="none" stroke="#3C3C3C" stroke-width="3" stroke-miterlimit="10" d="M14.134,24.16c0,4.624,2.861,8.737,7.311,11.375
	c1.028,0.609,1.547,8.863,2.732,9.303c2.506,0.934,5.917-6.268,8.895-6.268c10.459,0,18.938-6.451,18.938-14.41
	c0-7.96-8.479-14.411-18.938-14.411S14.134,16.2,14.134,24.16z"/>
<g>
	<path fill="#3C3C3C" d="M39.082,26.418c-1.091,0-1.769-0.796-1.769-1.856c0-1.09,0.707-1.856,1.739-1.856
		c1.031,0,1.769,0.767,1.769,1.856C40.821,25.622,40.112,26.418,39.082,26.418z"/>
	<path fill="#3C3C3C" d="M32.983,26.418c-1.091,0-1.769-0.796-1.769-1.856c0-1.09,0.707-1.856,1.737-1.856
		c1.033,0,1.769,0.767,1.769,1.856C34.721,25.622,34.014,26.418,32.983,26.418z"/>
	<path fill="#3C3C3C" d="M26.884,26.418c-1.09,0-1.768-0.796-1.768-1.856c0-1.09,0.707-1.856,1.738-1.856s1.768,0.767,1.768,1.856
		C28.622,25.622,27.915,26.418,26.884,26.418z"/>
</g>
</svg>
