<?xml version="1.0" encoding="utf-8"?>
<!-- Generator: Adobe Illustrator 16.0.0, SVG Export Plug-In . SVG Version: 6.00 Build 0)  -->
<!DOCTYPE svg PUBLIC "-//W3C//DTD SVG 1.1//EN" "http://www.w3.org/Graphics/SVG/1.1/DTD/svg11.dtd">
<svg version="1.1" id="Layer_1" xmlns="http://www.w3.org/2000/svg" xmlns:xlink="http://www.w3.org/1999/xlink" x="0px" y="0px"
	 width="75px" height="75px" viewBox="0 0 75 75" enable-background="new 0 0 75 75" xml:space="preserve">
<g>
	<g>
		<g>
			<path fill-rule="evenodd" clip-rule="evenodd" fill="#FFFFFF" d="M37.441,73.418c-19.817,0-35.945-16.178-35.95-36.063
				C1.485,17.573,17.571,1.452,37.351,1.418c20.273,0,36.122,15.756,36.14,35.871c0.017,19.88-16.119,36.088-35.97,36.129H37.441z"
				/>
			<path fill="#3C3C3C" d="M37.413,2.918c9.313,0,18.015,3.554,24.505,10.007c6.487,6.45,10.064,15.103,10.073,24.364
				c0.008,9.268-3.564,17.964-10.058,24.487c-6.492,6.521-15.163,10.122-24.415,10.142h-0.077c-18.991,0-34.445-15.505-34.45-34.563
				c-0.003-9.236,3.555-17.89,10.019-24.368S28.119,2.934,37.354,2.918h0.058H37.413 M37.412-0.082c-0.021,0-0.042,0-0.063,0
				C16.599-0.047-0.016,16.604-0.009,37.355c0.006,20.772,16.754,37.563,37.45,37.563c0.027,0,0.057,0,0.083,0
				c20.787-0.043,37.484-16.814,37.467-37.631C74.972,16.474,58.316-0.083,37.412-0.082L37.412-0.082z"/>
		</g>
	</g>
	<path fill-rule="evenodd" clip-rule="evenodd" fill="none" stroke="#3C3C3C" stroke-width="3" stroke-miterlimit="10" d="
		M59.674,49.95c0,3.295-2.039,6.227-5.209,8.106c-0.734,0.435-1.104,6.316-1.948,6.63c-1.786,0.665-4.218-4.467-6.339-4.467
		c-7.454,0-13.497-4.598-13.497-10.27c0-5.673,6.042-10.271,13.497-10.271S59.674,44.277,59.674,49.95z"/>
	<g>
		<path fill="#3C3C3C" d="M40.518,51.236c0-0.777,0.524-1.323,1.26-1.323c0.734,0,1.238,0.546,1.238,1.323
			c0,0.756-0.482,1.322-1.26,1.322C41.021,52.559,40.518,51.992,40.518,51.236z"/>
		<path fill="#3C3C3C" d="M44.863,51.236c0-0.777,0.525-1.323,1.26-1.323c0.735,0,1.239,0.546,1.239,1.323
			c0,0.756-0.483,1.322-1.26,1.322C45.367,52.559,44.863,51.992,44.863,51.236z"/>
		<path fill="#3C3C3C" d="M49.211,51.236c0-0.777,0.524-1.323,1.26-1.323c0.734,0,1.238,0.546,1.238,1.323
			c0,0.756-0.482,1.322-1.26,1.322C49.715,52.559,49.211,51.992,49.211,51.236z"/>
	</g>
	<path fill-rule="evenodd" clip-rule="evenodd" fill="none" stroke="#3C3C3C" stroke-width="3" stroke-miterlimit="10" d="
		M14.125,24.078c0,4.624,2.862,8.737,7.31,11.375c1.029,0.609,1.548,8.863,2.733,9.303c2.506,0.934,5.917-6.268,8.895-6.268
		C43.521,38.488,52,32.037,52,24.078c0-7.96-8.479-14.411-18.938-14.411S14.125,16.118,14.125,24.078z"/>
	<g>
		<path fill="#3C3C3C" d="M39.073,26.336c-1.09,0-1.768-0.796-1.768-1.856c0-1.09,0.707-1.856,1.739-1.856
			c1.031,0,1.768,0.767,1.768,1.856C40.812,25.54,40.104,26.336,39.073,26.336z"/>
		<path fill="#3C3C3C" d="M32.974,26.336c-1.09,0-1.768-0.796-1.768-1.856c0-1.09,0.707-1.856,1.738-1.856
			c1.032,0,1.768,0.767,1.768,1.856C34.712,25.54,34.005,26.336,32.974,26.336z"/>
		<path fill="#3C3C3C" d="M26.875,26.336c-1.09,0-1.768-0.796-1.768-1.856c0-1.09,0.707-1.856,1.739-1.856
			c1.031,0,1.768,0.767,1.768,1.856C28.613,25.54,27.906,26.336,26.875,26.336z"/>
	</g>
</g>
</svg>
