<?xml version="1.0" encoding="utf-8"?>
<!-- Generator: Adobe Illustrator 16.0.0, SVG Export Plug-In . SVG Version: 6.00 Build 0)  -->
<!DOCTYPE svg PUBLIC "-//W3C//DTD SVG 1.1//EN" "http://www.w3.org/Graphics/SVG/1.1/DTD/svg11.dtd">
<svg version="1.1" id="Layer_1" xmlns="http://www.w3.org/2000/svg" xmlns:xlink="http://www.w3.org/1999/xlink" x="0px" y="0px"
	 width="75px" height="75px" viewBox="0 0 75 75" enable-background="new 0 0 75 75" xml:space="preserve">
<g>
</g>
<polygon fill="none" stroke="#3C3C3C" stroke-width="3" stroke-miterlimit="10" points="57.995,26.954 16.949,26.954 16.949,57.736 
	57.995,57.736 "/>
<polygon fill="none" stroke="#3C3C3C" stroke-width="3" stroke-miterlimit="10" points="57.995,17.263 16.949,17.263 16.949,25.813 
	57.995,25.813 "/>
<g>
	<g>
		<rect x="26.641" y="34.364" fill="#3C3C3C" width="1.141" height="19.383"/>
	</g>
	<g>
		<rect x="19.799" y="34.364" fill="#3C3C3C" width="1.141" height="19.383"/>
	</g>
	<g>
		<rect x="54.004" y="34.364" fill="#3C3C3C" width="1.141" height="19.383"/>
	</g>
	<g>
		<rect x="33.481" y="34.364" fill="#3C3C3C" width="1.14" height="19.383"/>
	</g>
	<g>
		<rect x="40.322" y="34.364" fill="#3C3C3C" width="1.141" height="19.383"/>
	</g>
	<g>
		<rect x="47.164" y="34.364" fill="#3C3C3C" width="1.139" height="19.383"/>
	</g>
	<g>
		<rect x="20.939" y="40.064" fill="#3C3C3C" width="33.064" height="1.142"/>
	</g>
	<g>
		<rect x="19.799" y="33.225" fill="#3C3C3C" width="35.346" height="1.14"/>
	</g>
	<g>
		<rect x="19.799" y="53.747" fill="#3C3C3C" width="35.346" height="1.142"/>
	</g>
	<g>
		<rect x="20.939" y="46.907" fill="#3C3C3C" width="33.064" height="1.139"/>
	</g>
</g>
<g>
	<path fill="#3C3C3C" d="M37.5,3C56.523,3,72,18.477,72,37.5C72,56.523,56.523,72,37.5,72C18.477,72,3,56.523,3,37.5
		C3,18.477,18.477,3,37.5,3 M37.5,0C16.789,0,0,16.79,0,37.5C0,58.211,16.789,75,37.5,75S75,58.211,75,37.5
		C75,16.79,58.211,0,37.5,0L37.5,0z"/>
</g>
</svg>
