<?xml version="1.0" encoding="utf-8"?>
<!-- Generator: Adobe Illustrator 16.0.0, SVG Export Plug-In . SVG Version: 6.00 Build 0)  -->
<!DOCTYPE svg PUBLIC "-//W3C//DTD SVG 1.1//EN" "http://www.w3.org/Graphics/SVG/1.1/DTD/svg11.dtd">
<svg version="1.1" id="Layer_1" xmlns="http://www.w3.org/2000/svg" xmlns:xlink="http://www.w3.org/1999/xlink" x="0px" y="0px"
	 width="75px" height="75px" viewBox="0 0 75 75" enable-background="new 0 0 75 75" xml:space="preserve">
<g>
	<g>
		<path fill="#3C3C3C" d="M36.922,3c9.313,0,18.015,3.554,24.505,10.007c6.487,6.45,10.064,15.103,10.073,24.364
			c0.008,9.268-3.564,17.964-10.058,24.487C54.95,68.379,46.279,71.98,37.027,72H36.95C17.96,72,2.505,56.495,2.5,37.437
			C2.497,28.2,6.055,19.546,12.519,13.069C18.982,6.592,27.627,3.016,36.862,3h0.058H36.922 M27.325,27.951
			c-0.043-0.019-0.086-0.037-0.129-0.055l-4.822-2.007l0.696,5.176c0.54,4.017,0.516,4.073-0.743,7.008l-0.127,0.298
			c-0.647,1.511-1.258,2.938-1.987,4.267c-2.394,4.366-2.484,9.316-0.249,13.58c2.483,4.737,7.384,7.921,13.109,8.517l4.235,0.439
			l-0.294,0.482l1.676-0.338l3.384,0.352l-0.922-0.848l2.598-0.524c1.279-0.258,2.328-0.641,3.304-1.209
			c9.911-5.784,10.438-16.213,6.564-23.981c-1.454-2.918-1.897-5.823-1.437-9.419c0.091-0.709,0.124-1.385,0.159-2.102
			c0.016-0.323,0.033-0.665,0.057-1.033l0.332-5.18l-4.654,2.298c-2.58,1.274-4.521,2.86-5.847,4.789
			c-2.665-4.657-3.027-9.194-1.231-14.23l2.518-7.062l-6.694,3.375c-3.272,1.65-5.66,4.014-7.3,7.227
			C27.878,20.987,27.145,24.396,27.325,27.951 M37.088,52.344c0.218,1.059,0.673,2.145,1.52,3.19l2.557,3.157
			c-0.15,0.363-0.34,0.729-0.567,1.102l-1.768,2.892l-3.415-3.143c-1.368-1.259-1.808-2.341-1.674-3.749l3.072-3.158
			C36.906,52.538,36.998,52.441,37.088,52.344 M36.92,0c-0.021,0-0.042,0-0.063,0C16.107,0.035-0.507,16.686-0.5,37.438
			C-0.494,58.21,16.254,75,36.95,75c0.027,0,0.057,0,0.083,0C57.82,74.957,74.518,58.186,74.5,37.369
			C74.48,16.556,57.825-0.001,36.92,0L36.92,0z M31.003,40.277c1.104-2.883,0.808-5.439,0.081-7.992
			c-1.287-4.529-1.044-8.936,1.107-13.15c1.295-2.537,3.201-4.512,5.979-5.912c-2.937,8.236-0.592,15.146,4.945,21.596
			c0.361-4.066,2.541-6.607,6.287-8.457c-0.074,1.158-0.084,2.059-0.197,2.947c-0.498,3.885-0.105,7.459,1.727,11.137
			c3.219,6.455,2.926,15.199-5.391,20.053c-0.658,0.383-1.377,0.656-2.385,0.859c2.625-4.295,1.344-8.051-1.408-12.092
			c-0.301,1.627-0.543,2.945-0.809,4.381c-1.418-1.752-1.057-3.746-0.699-5.631c0.473-2.48-0.088-4.623-1.729-7.305
			c-0.307,4.033-1.262,7.17-3.851,9.832c-0.421-1.143-0.78-2.117-1.345-3.648c-1.23,5.342-5.217,9.994,0.066,14.855
			c-9.091-0.945-14.949-9.627-10.54-17.67c0.851-1.551,1.542-3.193,2.241-4.824c1.502-3.502,1.556-4.15,0.959-8.59
			C29.079,31.93,30.01,33.686,31.003,40.277L31.003,40.277z"/>
	</g>
</g>
</svg>
