<?xml version="1.0" encoding="utf-8"?>
<!-- Generator: Adobe Illustrator 16.0.0, SVG Export Plug-In . SVG Version: 6.00 Build 0)  -->
<!DOCTYPE svg PUBLIC "-//W3C//DTD SVG 1.1//EN" "http://www.w3.org/Graphics/SVG/1.1/DTD/svg11.dtd">
<svg version="1.1" id="Layer_1" xmlns="http://www.w3.org/2000/svg" xmlns:xlink="http://www.w3.org/1999/xlink" x="0px" y="0px"
	 width="640px" height="480px" viewBox="0 0 640 480" enable-background="new 0 0 640 480" xml:space="preserve">
<g>
	<path fill-rule="evenodd" clip-rule="evenodd" fill="#40AADF" d="M365.157,268.42c-11.008,0-22.019,0.007-33.026-0.01
		c-1.253-0.001-2.559,0.076-3.745-0.24c-2.351-0.626-3.226-3.057-1.51-4.735c4.151-4.069,8.613-7.82,13.449-11.064
		c0.984-0.658,2.377-0.79,3.608-0.976c1.702-0.253,2.731,0.463,2.668,2.337c-0.016,0.471-0.022,0.947,0.028,1.412
		c0.469,4.279,1.295,5.122,5.643,5.152c8.648,0.063,17.296,0.062,25.945,0.003c4.516-0.029,5.081-0.62,5.646-5.085
		c0.426-3.374,0.771-3.623,4.023-3.315c1.635,0.152,3.009,0.765,4.259,1.804c3.268,2.711,6.561,5.389,9.85,8.071
		c1.533,1.249,2.869,2.626,2.031,4.801c-0.798,2.074-2.726,1.83-4.429,1.835C388.117,268.428,376.638,268.419,365.157,268.42z"/>
	<path fill-rule="evenodd" clip-rule="evenodd" fill="#41ABDF" d="M259.598,223.446c1.997,0.047,1.703,2.09,3.097,2.509
		c0.265-0.284,0.596-0.567,0.848-0.912c1.603-2.174,2.654-4.625,3.632-7.121c0.27-0.689,0.739-1.506,1.728-0.988
		c0.602,0.316,0.737,0.958,0.604,1.634c-1.084,5.565-1.975,11.248-6.154,15.54c-1.403,1.437-1.81,2.551-0.854,4.471
		c2.807,5.625,3.077,11.518,0.791,17.366c-0.882,2.259-0.294,3.449,1.646,4.565c1.675,0.965,2.674,2.636,3.522,4.344
		c0.195,0.399,0.367,0.904-0.182,1.241c-0.424,0.259-0.861,0.318-1.3,0.036c-0.133-0.084-0.298-0.149-0.379-0.271
		c-3.533-5.36-9.459-5.737-14.888-7.088c-3.354-0.835-6.787-1.417-9.972-2.796c-6.52-2.824-7.524-5.933-4.083-12.186
		c1.316-2.396,3.155-4.316,5.435-5.795c1.449-0.939,2.966-1.783,4.484-2.613C252.797,232.529,258.323,230.003,259.598,223.446z"/>
	<path fill-rule="evenodd" clip-rule="evenodd" fill="#49AEE0" d="M281.658,206c1.885,5.485,0.85,10.931,0.027,16.295
		c-0.738,4.819-2.057,9.553-4.079,14.009c-2.157,4.751-1.624,9.18,0.986,13.502c3.985,6.602,8.009,13.18,11.993,19.783
		c1.177,1.953,2.496,3.889,2.408,6.256c-1.696,0.542-2.074-0.448-2.531-1.22c-4.805-8.128-9.619-16.252-14.378-24.405
		c-2.327-3.986-3.173-8.16-1.433-12.657c3.719-9.618,6.343-19.445,5.541-29.909C280.152,207.095,280.22,206.381,281.658,206z"/>
	<path fill-rule="evenodd" clip-rule="evenodd" fill="#48AEE1" d="M322.124,242.546c-5.944,0-10.759,0-15.577,0
		c-4.395,0-8.79,0.079-13.182-0.041c-1.568-0.042-4.265,0.895-4.355-1.323c-0.104-2.505,2.645-1.436,4.125-1.463
		c6.904-0.129,13.81-0.057,20.716-0.057c2.462-0.002,4.921-0.002,7.793-0.002c-0.569-2.354-2.383-2.99-3.395-4.25
		c-0.666-0.828-1.825-1.667-0.883-2.79c0.934-1.11,1.995-0.369,2.81,0.433c2.126,2.088,4.228,4.204,6.328,6.318
		c1.057,1.063,1.181,2.188,0.085,3.288c-2.327,2.335-4.654,4.672-7.034,6.946c-0.568,0.543-1.396,0.812-2.101,0.132
		c-0.7-0.673-0.484-1.497,0.028-2.109C318.686,246.203,319.991,244.862,322.124,242.546z"/>
	<path fill-rule="evenodd" clip-rule="evenodd" fill="#73BDE6" d="M358.186,219.895c-0.175,0.801-0.163,0.993-0.249,1.099
		c-0.873,1.033-1.523,2.376-3.127,2.439c-0.177,0.005-0.569-0.447-0.53-0.604C354.744,221.002,355.957,220.126,358.186,219.895z"/>
	<path fill-rule="evenodd" clip-rule="evenodd" fill="#76C1E8" d="M363.793,214.982c-0.12,0.828-0.092,1.02-0.175,1.129
		c-0.905,1.194-1.569,2.749-3.498,2.495c-0.116-0.015-0.305-0.244-0.291-0.345C360.145,216.264,361.562,215.577,363.793,214.982z"/>
	<path fill-rule="evenodd" clip-rule="evenodd" fill="#71BCE6" d="M370.573,217.917c-2.99-0.863-2.99-0.863-4.42-3.07
		C368.418,214.73,369.243,215.961,370.573,217.917z"/>
	<path fill-rule="evenodd" clip-rule="evenodd" fill="#6BBDE6" d="M343.308,233.296c0.562-2.635,1.648-3.479,3.698-3.824
		C346.983,231.754,345.407,232.21,343.308,233.296z"/>
	<path fill-rule="evenodd" clip-rule="evenodd" fill="#7BC4E9" d="M390.062,239.559c-1.315-2.335-1.433-3.609-0.662-5.092
		C391.259,235.658,390.918,237.019,390.062,239.559z"/>
	<path fill-rule="evenodd" clip-rule="evenodd" fill="#54B7E4" d="M374.105,219.592c0.573-0.063,1.378-0.28,1.34,0.592
		c-0.044,1.08-0.935,1.6-1.917,1.47c-0.495-0.065-1.253-0.654-1.309-1.082C372.002,218.832,373.442,219.892,374.105,219.592z"/>
	<path fill-rule="evenodd" clip-rule="evenodd" fill="#62B8E4" d="M352.882,224.719c-0.495,2.32-2.065,2.548-3.844,4.027
		C349.641,226.058,350.446,224.95,352.882,224.719z"/>
	<path fill-rule="evenodd" clip-rule="evenodd" fill="#63B7E4" d="M386.949,232.876c-0.494-0.123-0.657-0.129-0.783-0.2
		c-1.073-0.605-2.085-1.28-1.888-2.735c0.021-0.174,0.502-0.468,0.665-0.41C386.306,230.017,387.202,230.859,386.949,232.876z"/>
	<path fill-rule="evenodd" clip-rule="evenodd" fill="#52B9E4" d="M346.159,241.958c-0.136-0.002-0.34,0.055-0.397-0.012
		c-0.636-0.757-2.051-0.989-1.729-2.36c0.058-0.253,0.764-0.537,1.139-0.5C346.138,239.183,346.145,239.292,346.159,241.958z"/>
	<path fill-rule="evenodd" clip-rule="evenodd" fill="#73C5E9" d="M386.934,239.771c-0.033,0.676-0.516,1.057-0.974,1.435
		c-0.519,0.43-0.883,1.468-1.758,0.822c-0.824-0.609-0.968-1.485-0.133-2.3C385.033,239.188,385.989,239.116,386.934,239.771z"/>
	<path fill-rule="evenodd" clip-rule="evenodd" fill="#48AFE1" d="M384.682,245.372c0.903,1.743,0.966,3.007,0,4.514
		C383.251,248.53,383.213,247.282,384.682,245.372z"/>
	<path fill-rule="evenodd" clip-rule="evenodd" fill="#7FC6E9" d="M339.793,236.007c0.071-0.681,0.447-1.171,1.104-1.265
		c0.605-0.089,0.717,0.471,0.75,0.916c0.06,0.917,0.277,1.959-0.383,2.666c-0.468,0.498-1.114,0.194-1.367-0.53
		C340.389,237.165,340.318,236.574,339.793,236.007z"/>
	<path fill-rule="evenodd" clip-rule="evenodd" fill="#4DACE0" d="M384.78,221.994c0.699,1.771,0.957,3.022-0.206,4.624
		C383.655,225.046,383.105,223.855,384.78,221.994z"/>
	<path fill-rule="evenodd" clip-rule="evenodd" fill="#49ADE0" d="M378.875,219.402c0.263-0.225,0.354-0.363,0.479-0.402
		c1.158-0.352,2.305-0.578,3.144,0.631c0.054,0.077-0.017,0.333-0.107,0.399C380.992,221.042,379.948,220.423,378.875,219.402z"/>
	<path fill-rule="evenodd" clip-rule="evenodd" fill="#47AEE1" d="M345.866,245.465c0.95,1.72,1.041,2.968,0.097,4.271
		C344.911,248.503,345.098,247.262,345.866,245.465z"/>
	<path fill-rule="evenodd" clip-rule="evenodd" fill="#7BB8E4" d="M386.934,239.771c-0.954-0.016-1.908-0.028-2.864-0.043
		C385.04,238.633,386,238.356,386.934,239.771z"/>
	<path fill-rule="evenodd" clip-rule="evenodd" fill="#47AEE1" d="M339.793,236.007c0.98,0.54,1.034,1.135,0.104,1.787
		C339.862,237.198,339.827,236.603,339.793,236.007z"/>
	<path fill-rule="evenodd" clip-rule="evenodd" fill="#FCFEFF" d="M253.843,239.449c-0.436,5.976-0.691,11.379,0.708,17.11
		c-5.438-0.314-10.047-1.781-14.258-4.572c-1.197-0.795-1.756-1.762-0.741-3.112C243.048,244.239,247.603,241.257,253.843,239.449z"
		/>
	<path fill-rule="evenodd" clip-rule="evenodd" fill="#E3F3FB" d="M259.558,240.212c2.332,1.698,3.324,3.244,1.972,5.401
		c-0.216,0.344-0.769,0.59-1.206,0.175C258.723,244.269,259.23,242.47,259.558,240.212z"/>
</g>
</svg>
