<?xml version="1.0" encoding="utf-8"?>
<!-- Generator: Adobe Illustrator 16.0.0, SVG Export Plug-In . SVG Version: 6.00 Build 0)  -->
<!DOCTYPE svg PUBLIC "-//W3C//DTD SVG 1.1//EN" "http://www.w3.org/Graphics/SVG/1.1/DTD/svg11.dtd">
<svg version="1.1" id="Layer_1" xmlns="http://www.w3.org/2000/svg" xmlns:xlink="http://www.w3.org/1999/xlink" x="0px" y="0px"
	 width="283.333px" height="89.285px" viewBox="0 0 283.333 89.285" enable-background="new 0 0 283.333 89.285"
	 xml:space="preserve">
<path fill="#3C3C3C" d="M0,29.994h11.522V40.86c1.48-1.601,3.141-3.133,4.981-4.596c1.84-1.458,3.752-2.738,5.73-3.841
	c1.983-1.098,3.961-1.966,5.943-2.606c1.978-0.641,3.85-0.96,5.609-0.96c1.72,0,3.461,0.309,5.222,0.926
	c1.761,0.623,3.38,1.475,4.861,2.549c1.48,1.085,2.76,2.377,3.841,3.875c1.08,1.498,1.78,3.132,2.1,4.892
	c0.96-1.681,2.281-3.27,3.961-4.778c1.681-1.498,3.541-2.795,5.581-3.898c2.041-1.098,4.201-1.966,6.481-2.606
	c2.28-0.641,4.521-0.96,6.722-0.96c2.2,0,4.261,0.479,6.181,1.44c1.92,0.96,3.6,2.27,5.041,3.933c1.44,1.657,2.58,3.588,3.42,5.784
	c0.84,2.206,1.26,4.542,1.26,7.024v40.984H76.874V48.719c0-1.641-0.28-3.19-0.84-4.648c-0.56-1.461-1.312-2.742-2.249-3.839
	c-0.943-1.104-2.041-1.979-3.304-2.619c-1.257-0.64-2.588-0.959-3.989-0.959c-1.561,0-3.161,0.224-4.801,0.663
	c-1.64,0.44-3.201,1.029-4.681,1.772c-1.48,0.743-2.832,1.623-4.052,2.64c-1.22,1.018-2.189,2.092-2.909,3.212v43.082H38.527V48.719
	c0-1.641-0.28-3.19-0.84-4.648c-0.56-1.461-1.32-2.742-2.28-3.839c-0.96-1.104-2.069-1.979-3.333-2.619
	c-1.257-0.64-2.589-0.959-3.989-0.959c-1.48,0-3.012,0.224-4.589,0.663c-1.583,0.44-3.113,1.04-4.592,1.8
	c-1.48,0.76-2.861,1.641-4.141,2.641c-1.28,1-2.361,2.063-3.241,3.184v43.082L0,80.467V29.994z"/>
<path fill="#3C3C3C" d="M111.661,25.857v62.165h-11.462V32.155L111.661,25.857z"/>
<path fill="#3C3C3C" d="M135.766,3.27V88h-11.521V10.567"/>
<path fill="#3C3C3C" d="M159.814,25.857v62.165h-11.465V32.155L159.814,25.857z"/>
<path fill="#3C3C3C" d="M227.083,67.744c-0.841,2.961-2.184,5.749-4.024,8.368c-1.84,2.623-3.999,4.916-6.48,6.869
	c-2.479,1.967-5.178,3.504-8.099,4.624c-2.921,1.119-5.881,1.68-8.882,1.68c-3.92,0-7.602-0.736-11.042-2.222
	c-3.44-1.476-6.452-3.488-9.035-6.025c-2.573-2.543-4.619-5.515-6.115-8.915c-1.499-3.401-2.253-7.043-2.253-10.923
	c0-4.68,0.681-8.989,2.04-12.934c1.36-3.938,3.287-7.35,5.79-10.231c2.504-2.88,5.498-5.132,9.007-6.755
	c3.498-1.612,7.407-2.423,11.729-2.423c3.8,0,7.281,0.669,10.441,2.011c3.161,1.338,5.881,3.127,8.161,5.367
	c2.282,2.24,4.053,4.83,5.311,7.767c1.259,2.95,1.893,6.035,1.893,9.275h-43.271c0,3.921,0.503,7.527,1.503,10.831
	c0.999,3.303,2.406,6.173,4.234,8.614c1.817,2.439,3.979,4.337,6.482,5.697c2.49,1.36,5.246,2.046,8.248,2.046
	c2.519,0,4.931-0.4,7.229-1.201c2.297-0.8,4.377-1.874,6.241-3.212c1.863-1.337,3.451-2.856,4.771-4.56L227.083,67.744z
	 M211.121,48.655c0-2.195-0.395-4.247-1.171-6.15c-0.779-1.897-1.852-3.543-3.214-4.915c-1.359-1.383-2.948-2.469-4.766-3.247
	c-1.824-0.777-3.772-1.166-5.854-1.166c-1.76,0-3.428,0.389-5.005,1.166c-1.589,0.778-2.996,1.864-4.235,3.247
	c-1.24,1.372-2.27,3.006-3.093,4.887c-0.823,1.88-1.309,3.92-1.469,6.121L211.121,48.655z"/>
<path fill="#3C3C3C" d="M245.35,29.994v41.287c0,1.442,0.338,2.801,1.018,4.081c0.681,1.281,1.601,2.396,2.762,3.333
	c1.159,0.938,2.509,1.692,4.051,2.251c1.537,0.562,3.189,0.835,4.949,0.835c1.161,0,2.39-0.246,3.692-0.743
	c1.299-0.502,2.572-1.184,3.806-2.046c1.247-0.857,2.402-1.864,3.487-2.995c1.075-1.143,1.978-2.354,2.698-3.635V29.994
	l11.521,7.221v50.807h-11.521V77.163c-1,1.681-2.264,3.252-3.783,4.71c-1.521,1.462-3.167,2.743-4.95,3.84
	c-1.783,1.104-3.624,1.973-5.521,2.614c-1.897,0.639-3.691,0.958-5.372,0.958c-2.516,0-4.898-0.475-7.138-1.411
	c-2.241-0.937-4.19-2.229-5.848-3.871c-1.669-1.639-2.974-3.548-3.932-5.73c-0.96-2.178-1.442-4.51-1.442-6.991V29.994H245.35z"/>
<polygon fill="none" stroke="#2196F3" stroke-width="2" stroke-linecap="round" stroke-miterlimit="10" points="151.299,23.47 
	151.299,3.291 174.103,3.291 174.103,18.769 159.814,18.769 "/>
</svg>
