<?xml version="1.0" encoding="utf-8"?>
<!-- Generator: Adobe Illustrator 16.0.0, SVG Export Plug-In . SVG Version: 6.00 Build 0)  -->
<!DOCTYPE svg PUBLIC "-//W3C//DTD SVG 1.1//EN" "http://www.w3.org/Graphics/SVG/1.1/DTD/svg11.dtd">
<svg version="1.1" id="Layer_1" xmlns="http://www.w3.org/2000/svg" xmlns:xlink="http://www.w3.org/1999/xlink" x="0px" y="0px"
	 width="88.456px" height="89.285px" viewBox="0 0 88.456 89.285" enable-background="new 0 0 88.456 89.285" xml:space="preserve">
<path fill="#3C3C3C" d="M0,38.688l11.522-7v10.865c1.48-1.6,3.141-3.133,4.981-4.596c1.84-1.457,3.752-2.737,5.73-3.84
	c1.983-1.098,3.961-1.967,5.943-2.606c1.978-0.641,3.85-0.96,5.609-0.96c1.72,0,3.461,0.309,5.222,0.926
	c1.761,0.623,3.38,1.475,4.861,2.549c1.48,1.086,2.76,2.377,3.841,3.875c1.08,1.498,1.78,3.133,2.1,4.893
	c0.96-1.681,2.281-3.27,3.961-4.777c1.681-1.498,3.541-2.796,5.581-3.898c2.041-1.098,4.201-1.967,6.481-2.606
	c2.28-0.641,4.521-0.96,6.722-0.96c2.2,0,4.261,0.479,6.181,1.439s3.6,2.27,5.041,3.934c1.44,1.656,2.58,3.588,3.42,5.783
	c0.84,2.206,1.26,4.543,1.26,7.024v40.984H76.874V50.412c0-1.641-0.28-3.19-0.84-4.648c-0.56-1.461-1.312-2.742-2.249-3.839
	c-0.943-1.104-2.041-1.979-3.304-2.619c-1.257-0.64-2.588-0.96-3.989-0.96c-1.561,0-3.161,0.225-4.801,0.664
	c-1.64,0.439-3.201,1.029-4.681,1.771c-1.48,0.742-2.832,1.623-4.052,2.641s-2.189,2.092-2.909,3.212v43.082H38.527V50.412
	c0-1.641-0.28-3.19-0.84-4.648c-0.56-1.461-1.32-2.742-2.28-3.839c-0.96-1.104-2.069-1.979-3.333-2.619
	c-1.257-0.64-2.589-0.96-3.989-0.96c-1.48,0-3.012,0.225-4.589,0.664c-1.583,0.439-3.113,1.039-4.592,1.799
	c-1.48,0.761-2.861,1.641-4.141,2.641c-1.28,1.001-2.361,2.064-3.241,3.185v43.082L0,82.16V38.688z"/>
<polygon fill="none" stroke="#2196F3" stroke-width="2" stroke-linecap="round" stroke-miterlimit="10" points="3.007,29.3 
	3.007,9.121 25.811,9.121 25.811,24.599 11.522,24.599 "/>
</svg>
