<?xml version="1.0" encoding="utf-8"?>
<!-- Generator: Adobe Illustrator 16.0.0, SVG Export Plug-In . SVG Version: 6.00 Build 0)  -->
<!DOCTYPE svg PUBLIC "-//W3C//DTD SVG 1.1//EN" "http://www.w3.org/Graphics/SVG/1.1/DTD/svg11.dtd">
<svg version="1.1" id="Layer_1" xmlns="http://www.w3.org/2000/svg" xmlns:xlink="http://www.w3.org/1999/xlink" x="0px" y="0px"
	 width="640px" height="480px" viewBox="0 0 640 480" enable-background="new 0 0 640 480" xml:space="preserve">
<g>
	<path fill-rule="evenodd" clip-rule="evenodd" fill="#E36A5A" d="M305.164,244.907c-0.386-0.354-0.465-0.489-0.564-0.51
		c-6.169-1.208-6.516-1.619-6.518-7.803c-0.001-8.021-0.014-16.046,0.004-24.067c0.013-5.09,1.41-6.494,6.501-6.504
		c9.966-0.021,19.935-0.044,29.9,0.009c6.654,0.035,7.481,0.939,7.485,7.675c0.004,7.777,0.009,15.559-0.003,23.335
		c-0.008,5.853-0.166,6.029-5.79,7.201c-0.331,0.069-0.632,0.291-0.965,0.447c0.023,1.837,1.12,3.225,1.723,4.782
		c0.347,0.903,0.978,1.855,0.154,2.701c-0.963,0.988-2.007,0.317-2.993-0.165c-2.983-1.455-5.809-3.085-7.383-6.216
		c-0.384-0.764-0.813-1.594-1.857-1.469c-1.056,0.128-1.169,1.075-1.429,1.879c-0.487,1.5-0.97,3.004-1.511,4.485
		c-0.328,0.897-0.608,1.937-1.889,1.875c-1.242-0.062-1.477-1.09-1.795-2.004c-0.558-1.605-1.091-3.219-1.657-4.821
		c-0.242-0.684-0.486-1.489-1.34-1.55c-0.824-0.06-1.282,0.606-1.594,1.287c-1.335,2.918-3.677,4.77-6.466,6.155
		c-0.432,0.216-0.869,0.444-1.327,0.596c-0.919,0.303-1.902,0.699-2.714-0.151c-0.719-0.755-0.255-1.645,0.028-2.403
		C303.756,248.086,304.467,246.548,305.164,244.907z"/>
	<path fill-rule="evenodd" clip-rule="evenodd" fill="#E36A5A" d="M320.083,275.963c-1.699,0-3.4,0.052-5.095-0.011
		c-2.178-0.081-2.42-0.396-2.343-2.631c0.151-4.317,3.648-7.742,7.725-7.564c4.217,0.185,7.184,3.71,7.018,8.149
		c-0.059,1.593-0.7,2.138-2.212,2.073C323.481,275.906,321.78,275.962,320.083,275.963z"/>
	<path fill-rule="evenodd" clip-rule="evenodd" fill="#E36A5A" d="M302.536,275.964c-1.576,0.003-3.151,0.035-4.726-0.007
		c-2.527-0.066-2.889-0.506-2.647-3.041c0.416-4.339,4.078-7.569,8.101-7.146c4.097,0.434,6.742,3.798,6.594,8.163
		c-0.056,1.619-0.738,2.108-2.23,2.046C305.935,275.908,304.234,275.963,302.536,275.964z"/>
	<path fill-rule="evenodd" clip-rule="evenodd" fill="#E36A5A" d="M337.563,275.964c-1.581,0.003-3.159,0.035-4.737-0.005
		c-2.576-0.067-2.861-0.417-2.635-3.034c0.358-4.144,3.856-7.41,7.723-7.209c4.06,0.212,6.985,3.552,6.986,7.855
		c0,1.592-0.366,2.55-2.238,2.416C340.97,275.866,339.262,275.962,337.563,275.964z"/>
	<path fill-rule="evenodd" clip-rule="evenodd" fill="#E46C5D" d="M306.907,260.169c-0.046,2.643-1.741,4.228-4.453,4.166
		c-2.491-0.058-4.431-2.037-4.327-4.419c0.098-2.282,2.344-4.414,4.587-4.355C305.08,255.623,306.952,257.679,306.907,260.169z"/>
	<path fill-rule="evenodd" clip-rule="evenodd" fill="#E46C5D" d="M324.431,260.191c-0.061,2.609-1.796,4.213-4.483,4.142
		c-2.494-0.066-4.424-2.061-4.3-4.44c0.123-2.291,2.386-4.422,4.606-4.335C322.632,255.65,324.486,257.708,324.431,260.191z"/>
	<path fill-rule="evenodd" clip-rule="evenodd" fill="#E46C5C" d="M341.939,259.957c0.034,2.563-1.708,4.337-4.295,4.378
		c-2.512,0.038-4.45-1.795-4.494-4.245c-0.037-2.274,2.074-4.45,4.388-4.519C339.887,255.508,341.905,257.518,341.939,259.957z"/>
	<path fill-rule="evenodd" clip-rule="evenodd" fill="#FFFFFF" d="M332.098,247.106c-1.949-0.898-2.726-2.268-3.021-3.853
		c-0.391-2.087-1.785-2.346-3.511-2.284c-1.807,0.067-3.743-0.285-4.393,2.191c-0.196,0.748-0.31,1.622-1.104,2.283
		c-0.267-0.449-0.56-0.834-0.738-1.265c-1.337-3.225-1.434-3.247-4.736-3.219c-1.897,0.016-3.276,0.344-3.578,2.647
		c-0.206,1.577-1.322,2.741-3.034,3.723c0.136-1.569,0.236-2.759,0.347-3.946c0.143-1.516-0.58-2.271-2.061-2.375
		c-0.122-0.009-0.243-0.009-0.363-0.02c-4.822-0.513-4.824-0.513-4.825-5.196c-0.002-7.533-0.016-15.069,0.006-22.604
		c0.011-3.817,0.122-3.94,3.853-3.947c10.088-0.023,20.175-0.021,30.262-0.001c3.693,0.007,3.756,0.061,3.768,3.579
		c0.025,8.387,0.034,16.772-0.01,25.157c-0.015,2.752-0.189,2.844-2.896,2.998c-4.584,0.261-4.579,0.26-3.885,4.828
		C332.23,246.15,332.139,246.517,332.098,247.106z"/>
	<path fill-rule="evenodd" clip-rule="evenodd" fill="#E36A5A" d="M319.415,232.541c-0.707,0.031-1.921-0.356-2.543-2.064
		c-0.575-1.581-1.521-3.023-2.163-4.586c-1.07-2.609-0.38-5.182,1.704-6.839c2.037-1.62,4.918-1.692,7.091-0.178
		c2.103,1.466,3.015,4.186,2.047,6.78c-0.715,1.917-1.765,3.706-2.561,5.598C322.438,232.57,321.374,232.504,319.415,232.541z"/>
	<path fill-rule="evenodd" clip-rule="evenodd" fill="#E57162" d="M317.544,234.628c1.727-1.212,3.43-1.336,5.333-0.09
		C320.979,236.024,319.257,235.419,317.544,234.628z"/>
	<path fill-rule="evenodd" clip-rule="evenodd" fill="#E57364" d="M308.329,223.669c1.503-1.211,2.736-1.242,3.993-0.521
		c0.293,0.17,0.345,0.759,0.044,0.951C311.126,224.897,309.9,224.793,308.329,223.669z"/>
	<path fill-rule="evenodd" clip-rule="evenodd" fill="#E57263" d="M329.494,224.583c-0.767-0.12-1.907,0.064-1.788-1.099
		c0.077-0.773,1.074-0.788,1.799-0.77c0.71,0.017,1.717-0.021,1.797,0.775C331.419,224.686,330.255,224.445,329.494,224.583z"/>
	<path fill-rule="evenodd" clip-rule="evenodd" fill="#E57E71" d="M319.917,236.53c0.885,0.016,1.79,0.063,1.712,0.969
		c-0.062,0.69-0.861,1.146-1.638,1.02c-0.69-0.112-1.462-0.419-1.349-1.303C318.742,236.443,319.526,236.626,319.917,236.53z"/>
	<path fill-rule="evenodd" clip-rule="evenodd" fill="#E46B5B" d="M320.1,212.101c0.89,1.516,0.862,2.604,0.053,4.08
		C318.896,214.731,318.964,213.643,320.1,212.101z"/>
	<path fill-rule="evenodd" clip-rule="evenodd" fill="#E87B6D" d="M315.173,218.284c-2.393-0.919-2.393-0.919-3.462-2.788
		C313.536,215.402,314.215,216.48,315.173,218.284z"/>
	<path fill-rule="evenodd" clip-rule="evenodd" fill="#E77A6C" d="M328.688,215.123c-0.41,1.819-1.35,2.558-2.827,3.184
		C325.692,216.199,326.771,215.582,328.688,215.123z"/>
</g>
</svg>
