<?xml version="1.0" encoding="utf-8"?>
<!-- Generator: Adobe Illustrator 16.0.3, SVG Export Plug-In . SVG Version: 6.00 Build 0)  -->
<!DOCTYPE svg PUBLIC "-//W3C//DTD SVG 1.1//EN" "http://www.w3.org/Graphics/SVG/1.1/DTD/svg11.dtd">
<svg version="1.1" id="Layer_1" xmlns="http://www.w3.org/2000/svg" xmlns:xlink="http://www.w3.org/1999/xlink" x="0px" y="0px"
	 width="63px" height="86px" viewBox="290.5 196.5 63 86" enable-background="new 290.5 196.5 63 86" xml:space="preserve">
<g>
	<path fill="#E36A5A" d="M305.164,244.907c-0.386-0.354-0.465-0.489-0.564-0.511c-6.169-1.207-6.516-1.619-6.518-7.802
		c-0.001-8.021-0.014-16.046,0.004-24.067c0.013-5.09,1.41-6.494,6.501-6.504c9.966-0.021,19.936-0.044,29.9,0.009
		c6.653,0.035,7.48,0.939,7.484,7.675c0.004,7.777,0.01,15.559-0.003,23.335c-0.008,5.853-0.166,6.028-5.79,7.201
		c-0.331,0.069-0.632,0.291-0.965,0.446c0.023,1.838,1.12,3.226,1.723,4.783c0.348,0.902,0.979,1.854,0.154,2.7
		c-0.963,0.988-2.007,0.317-2.993-0.165c-2.982-1.455-5.809-3.085-7.383-6.216c-0.384-0.765-0.813-1.594-1.856-1.469
		c-1.057,0.128-1.169,1.075-1.43,1.879c-0.486,1.5-0.97,3.004-1.511,4.485c-0.328,0.896-0.608,1.937-1.889,1.875
		c-1.242-0.063-1.478-1.09-1.795-2.004c-0.559-1.605-1.092-3.22-1.657-4.822c-0.242-0.684-0.486-1.488-1.34-1.549
		c-0.824-0.061-1.282,0.605-1.595,1.287c-1.335,2.918-3.677,4.77-6.466,6.154c-0.432,0.217-0.869,0.444-1.327,0.596
		c-0.919,0.303-1.902,0.699-2.714-0.15c-0.719-0.756-0.255-1.645,0.028-2.403C303.756,248.086,304.467,246.548,305.164,244.907z"/>
	<path fill="#E36A5A" d="M320.083,275.963c-1.699,0-3.4,0.053-5.095-0.011c-2.179-0.081-2.42-0.396-2.344-2.632
		c0.151-4.316,3.648-7.741,7.726-7.563c4.217,0.185,7.184,3.71,7.018,8.149c-0.059,1.593-0.699,2.138-2.212,2.072
		C323.481,275.906,321.78,275.962,320.083,275.963z"/>
	<path fill="#E36A5A" d="M302.536,275.964c-1.576,0.003-3.151,0.035-4.726-0.007c-2.527-0.066-2.889-0.506-2.647-3.041
		c0.416-4.339,4.078-7.568,8.101-7.146c4.097,0.435,6.742,3.799,6.594,8.164c-0.057,1.618-0.738,2.107-2.23,2.045
		C305.935,275.908,304.234,275.963,302.536,275.964z"/>
	<path fill="#E36A5A" d="M337.563,275.964c-1.58,0.003-3.158,0.035-4.736-0.005c-2.576-0.066-2.861-0.417-2.635-3.034
		c0.357-4.144,3.855-7.409,7.723-7.209c4.06,0.212,6.985,3.552,6.986,7.854c0,1.593-0.366,2.551-2.238,2.416
		C340.97,275.866,339.262,275.962,337.563,275.964z"/>
	<path fill="#E46C5D" d="M306.907,260.169c-0.046,2.644-1.741,4.228-4.453,4.166c-2.491-0.058-4.431-2.037-4.327-4.419
		c0.098-2.282,2.344-4.414,4.587-4.355C305.08,255.623,306.952,257.68,306.907,260.169z"/>
	<path fill="#E46C5D" d="M324.431,260.191c-0.061,2.608-1.796,4.213-4.482,4.142c-2.494-0.065-4.424-2.062-4.3-4.44
		c0.123-2.291,2.386-4.422,4.605-4.334C322.632,255.65,324.486,257.708,324.431,260.191z"/>
	<path fill="#E46C5C" d="M341.939,259.957c0.033,2.563-1.708,4.337-4.296,4.378c-2.512,0.038-4.449-1.795-4.493-4.245
		c-0.037-2.273,2.073-4.449,4.388-4.52C339.887,255.508,341.905,257.518,341.939,259.957z"/>
	<path fill="#FFFFFF" d="M332.098,247.105c-1.948-0.897-2.726-2.268-3.021-3.853c-0.392-2.087-1.785-2.346-3.511-2.284
		c-1.808,0.067-3.743-0.285-4.394,2.191c-0.196,0.748-0.31,1.622-1.104,2.283c-0.268-0.449-0.561-0.834-0.738-1.266
		c-1.337-3.225-1.434-3.246-4.736-3.219c-1.896,0.016-3.275,0.344-3.578,2.646c-0.206,1.578-1.321,2.742-3.033,3.724
		c0.136-1.569,0.235-2.759,0.347-3.946c0.143-1.516-0.58-2.271-2.062-2.375c-0.122-0.009-0.242-0.009-0.363-0.02
		c-4.822-0.513-4.824-0.513-4.825-5.196c-0.002-7.533-0.016-15.069,0.006-22.604c0.011-3.817,0.122-3.94,3.853-3.947
		c10.088-0.023,20.175-0.021,30.262-0.001c3.692,0.007,3.756,0.061,3.768,3.579c0.025,8.387,0.034,16.772-0.01,25.157
		c-0.015,2.752-0.189,2.844-2.896,2.999c-4.585,0.26-4.579,0.26-3.886,4.827C332.23,246.15,332.139,246.518,332.098,247.105z"/>
	<path fill="#E36A5A" d="M319.415,232.541c-0.707,0.031-1.921-0.356-2.543-2.064c-0.575-1.581-1.521-3.023-2.163-4.586
		c-1.07-2.609-0.38-5.182,1.704-6.839c2.037-1.62,4.918-1.692,7.091-0.178c2.104,1.466,3.016,4.186,2.047,6.78
		c-0.715,1.917-1.765,3.706-2.561,5.598C322.438,232.57,321.374,232.504,319.415,232.541z"/>
	<path fill="#E57162" d="M317.544,234.628c1.728-1.212,3.43-1.336,5.333-0.09C320.979,236.024,319.257,235.419,317.544,234.628z"/>
	<path fill="#E57364" d="M308.329,223.669c1.503-1.211,2.736-1.242,3.993-0.521c0.293,0.17,0.345,0.759,0.044,0.951
		C311.126,224.897,309.9,224.793,308.329,223.669z"/>
	<path fill="#E57263" d="M329.494,224.583c-0.768-0.12-1.907,0.064-1.788-1.099c0.077-0.773,1.074-0.788,1.799-0.77
		c0.71,0.017,1.717-0.021,1.797,0.775C331.419,224.686,330.255,224.445,329.494,224.583z"/>
	<path fill="#E57E71" d="M319.917,236.53c0.885,0.016,1.79,0.063,1.712,0.969c-0.062,0.69-0.861,1.146-1.638,1.02
		c-0.69-0.112-1.462-0.419-1.35-1.303C318.742,236.443,319.526,236.626,319.917,236.53z"/>
	<path fill="#E46B5B" d="M320.1,212.101c0.891,1.516,0.862,2.604,0.054,4.08C318.896,214.731,318.964,213.643,320.1,212.101z"/>
	<path fill="#E87B6D" d="M315.173,218.284c-2.393-0.919-2.393-0.919-3.462-2.788C313.536,215.402,314.215,216.48,315.173,218.284z"
		/>
	<path fill="#E77A6C" d="M328.688,215.123c-0.409,1.819-1.35,2.558-2.826,3.184C325.692,216.199,326.771,215.582,328.688,215.123z"
		/>
</g>
</svg>
