<?xml version="1.0" encoding="utf-8"?>
<!-- Generator: Adobe Illustrator 16.0.0, SVG Export Plug-In . SVG Version: 6.00 Build 0)  -->
<!DOCTYPE svg PUBLIC "-//W3C//DTD SVG 1.1//EN" "http://www.w3.org/Graphics/SVG/1.1/DTD/svg11.dtd">
<svg version="1.1" id="Layer_1" xmlns="http://www.w3.org/2000/svg" xmlns:xlink="http://www.w3.org/1999/xlink" x="0px" y="0px"
	 width="75px" height="75px" viewBox="0 0 75 75" enable-background="new 0 0 75 75" xml:space="preserve">
<g>
	<path fill="none" stroke="#3C3C3C" stroke-miterlimit="10" d="M63.463,54.67c-0.07,0.262-0.145,0.521-0.211,0.785
		c-0.646,2.553-2.916,4.359-5.545,4.359c-13.768,0.008-27.535,0.01-41.303,0c-3.332-0.002-5.861-2.539-5.861-5.863
		c-0.008-10.941-0.008-21.883,0-32.825c0-3.167,2.146-5.556,5.277-5.915c2.885-0.332,5.855,1.945,6.139,4.845
		c0.168,1.726,0.113,3.474,0.115,5.212c0.008,8.513,0.002,17.025,0.002,25.537c0,0.121,0,0.24,0,0.424
		c-0.078-0.059-0.135-0.082-0.162-0.123c-1.102-1.676-3.986-1.93-5.615-0.688c-1.336,1.019-1.355,2.64-0.029,3.676
		c0.748,0.587,1.617,0.81,2.557,0.81c7.789-0.004,15.578-0.002,23.364-0.002c4.326-0.002,8.65-0.002,12.978,0.002
		c0.961,0,1.843-0.24,2.595-0.853c1.28-1.043,1.227-2.651-0.099-3.646c-1.543-1.155-4.396-1.094-5.729,0.855
		c-0.014-0.197-0.031-0.336-0.031-0.475c-0.002-9.926-0.004-19.85,0-29.775c0.003-3.089,2.318-5.575,5.392-5.812
		c2.92-0.226,5.554,1.888,6.062,4.858c0.016,0.097,0.069,0.188,0.106,0.281C63.463,31.781,63.463,43.227,63.463,54.67z"/>
	<path fill="#3C3C3C" d="M41.982,27.093c1.113,0,2.146,0,3.258,0c0,0.178,0,0.342,0,0.505c0,1.172,0.014,2.344-0.008,3.516
		c-0.006,0.359,0.096,0.602,0.377,0.835c1.43,1.19,2.836,2.409,4.262,3.603c0.25,0.209,0.352,0.422,0.34,0.748
		c-0.023,0.752-0.008,1.508-0.008,2.31c-1.107,0-2.168,0-3.293,0c0,3.324,0,6.604,0,9.91c-6.623,0-13.182,0-19.805,0
		c0-3.271,0-6.549,0-9.873c-1.121,0-2.184,0-3.322,0c0-0.933-0.014-1.82,0.016-2.706c0.004-0.128,0.197-0.268,0.328-0.369
		c4.166-3.285,8.338-6.562,12.5-9.853c0.291-0.231,0.475-0.21,0.752,0.004c1.326,1.017,2.668,2.013,4.006,3.015
		c0.16,0.121,0.324,0.236,0.598,0.435C41.982,28.401,41.982,27.748,41.982,27.093z M43.607,38.652c-4.443,0-8.829,0-13.228,0
		c0,2.215,0,4.393,0,6.584c1.672,0,3.311,0,4.996,0c0-1.656,0-3.269,0-4.881c1.102,0,2.16,0,3.265,0c0,1.649,0,3.262,0,4.879
		c1.688,0,3.327,0,4.967,0C43.607,43.021,43.607,40.855,43.607,38.652z M44.738,35.337c-0.162-0.149-0.23-0.222-0.309-0.281
		c-2.386-1.815-4.777-3.622-7.153-5.452c-0.297-0.229-0.451-0.086-0.66,0.072c-2.316,1.765-4.635,3.527-6.951,5.291
		c-0.123,0.093-0.238,0.197-0.443,0.37C34.447,35.337,39.529,35.337,44.738,35.337z"/>
	<path fill="none" stroke="#000000" stroke-miterlimit="10" d="M21.959,20.189c9.998,0,19.984,0,30.008,0"/>
</g>
<g>
	<path fill="#3C3C3C" d="M37,3c19.023,0,34.5,15.477,34.5,34.5C71.5,56.523,56.023,72,37,72C17.977,72,2.5,56.523,2.5,37.5
		C2.5,18.477,17.977,3,37,3 M37,0C16.289,0-0.5,16.79-0.5,37.5C-0.5,58.211,16.289,75,37,75s37.5-16.789,37.5-37.5
		C74.5,16.79,57.711,0,37,0L37,0z"/>
</g>
</svg>
