<?xml version="1.0" encoding="utf-8"?>
<!-- Generator: Adobe Illustrator 16.0.3, SVG Export Plug-In . SVG Version: 6.00 Build 0)  -->
<!DOCTYPE svg PUBLIC "-//W3C//DTD SVG 1.1//EN" "http://www.w3.org/Graphics/SVG/1.1/DTD/svg11.dtd">
<svg version="1.1" id="Layer_1" xmlns="http://www.w3.org/2000/svg" xmlns:xlink="http://www.w3.org/1999/xlink" x="0px" y="0px"
	 width="107px" height="79px" viewBox="264.5 201.5 107 79" enable-background="new 264.5 201.5 107 79" xml:space="preserve">
<g>
	<path fill="#12B89A" d="M338.097,272.992c-0.673-0.061-1.353-0.219-2.016-0.158c-1.946,0.174-3.154-0.365-2.95-2.613
		c0.154-1.74-0.77-2.412-2.434-2.396c-1.748,0.019-2.28-1.031-2.246-2.643c0.06-2.695,0.017-5.393,0.017-7.981
		c-1.425-0.884-2.227,0.174-3.068,0.661c-5.607,3.257-11.22,6.51-16.729,9.926c-2.122,1.314-3.839,1.348-5.926-0.07
		c-3.797-2.58-7.813-4.837-11.617-7.404c-1.724-1.164-3.045-1.078-4.722,0.047c-3.588,2.406-7.297,4.635-10.964,6.929
		c-0.8,0.5-1.578,1.075-2.445,1.42c-1.674,0.664-3.025,0.021-3.434-1.7c-0.246-1.031-0.183-2.146-0.185-3.224
		c-0.011-12.298,0.092-24.6-0.075-36.897c-0.044-3.128,1.043-4.989,3.688-6.498c4.222-2.404,8.375-4.966,12.367-7.73
		c2.512-1.738,4.515-1.649,6.966,0.082c3.415,2.414,7.123,4.406,10.597,6.74c1.876,1.261,3.42,1.695,5.402,0.13
		c1.894-1.499,4.073-2.645,6.155-3.904c1.397-0.849,2.535-1.89,3.552-3.22c3.842-5.035,9.563-6.698,15.114-4.594
		c5.422,2.059,8.411,6.849,8.32,13.057c-0.037,2.588-1.05,4.987-1.313,7.744c3.545,0.583,7.023,0.174,10.479,0.282
		c1.484,0.045,2.975-0.011,4.46,0.01c3.115,0.045,3.146,0.047,3.682,3.156c0.148,0.874,0.449,1.533,1.273,1.899
		c-0.924,2.415-2.277,1.616-3.678,0.502c-0.657-1.326-1.343-2.641-3.134-2.605c-4.497,0.091-9.024-0.587-13.476,0.503
		c-0.6,0.341-1.05,0.8-1.172,1.523c-0.058,0.358-0.163,0.693-0.308,1.023c-0.515,0.829-0.91,1.706-1.242,2.619
		c-0.841,2.054-0.966,4.205-0.954,6.38c0.037,8.248-0.068,16.492,0.068,24.722c0.206,1.099,0.682,1.742,1.94,1.224
		c0.728-0.3,1.497-0.74,2.155,0.164c0.69,1.787,0.952,3.629,0.748,5.532c-1.05,1.448-1.894,1.368-2.396-0.378
		C338.388,274.514,338.788,273.632,338.097,272.992z"/>
	<path fill="#21BEA1" d="M336.597,235.813c0.536-0.618,1.069-1.237,1.604-1.857c6.182-1.974,12.367-1.904,18.557-0.036
		c1.054,1.249,2.149,1.268,3.289,0.12c2.687-0.577,3.672-0.179,3.321,3.709c1.233,1.711,3.305-0.006,4.677,1.141
		c0.439,0.671,0.427,1.382,0.209,2.116c0.479,11.756,0.573,23.512-0.045,35.268l0.021-0.018c-0.26,0.205-0.535,0.387-0.825,0.545
		c-0.313,0.002-0.625,0.002-0.938,0.002c-1.341-0.513-2.847,0.228-4.15-0.546c-0.123-0.424-0.038-0.8,0.253-1.129
		c0.955-0.744,2.332-0.716,3.129-1.739c1.102-2.886,0.445-5.869,0.499-8.791c0.112-6.316,0.054-12.639,0.021-18.957
		c-0.01-1.562,0.41-3.313-1.396-4.301c-4.407-0.955-8.867-0.184-13.278-0.479c-0.873,0.045-1.844-0.184-2.362,0.855
		c-0.479,1.458-0.168,3.03-0.708,4.473c-0.293,0.779-0.711,1.471-1.382,1.985c-1.607,0.948-3.466,0.474-5.153,0.906
		c-0.484,0.261-0.796,0.662-0.95,1.196c-0.464,2.199,0.536,4.669-1.248,6.604c-2.313-0.658-1.728-2.634-1.855-4.225
		c-0.118-1.443-0.059-2.9,0.022-4.348c0.015-0.416,0.086-0.832,0.19-1.233c0.104-0.377,0.263-0.74,0.448-1.081
		c0.104-0.15,0.219-0.307,0.318-0.459c0.214-0.273,0.463-0.533,0.713-0.773c0.116-0.115,0.247-0.227,0.364-0.342
		c0.222-0.22,0.464-0.431,0.7-0.638c0.107-0.104,0.229-0.203,0.336-0.308c0.206-0.207,0.43-0.406,0.646-0.604
		c0.102-0.103,0.211-0.198,0.313-0.3c0.196-0.209,0.404-0.405,0.613-0.604c0.102-0.105,0.207-0.199,0.308-0.308
		c0.195-0.218,0.406-0.421,0.613-0.63c0.104-0.112,0.211-0.215,0.313-0.328c0.207-0.239,0.427-0.464,0.646-0.693
		c0.111-0.124,0.227-0.238,0.337-0.364c0.235-0.264,0.485-0.498,0.753-0.729c0.146-0.115,0.294-0.215,0.439-0.328
		c0.327-0.202,0.672-0.349,1.031-0.468c0.374-0.111,0.753-0.183,1.135-0.227c3.65-0.569,7.43,0.776,10.965-0.774
		c-5.696-0.677-11.367-0.104-17.025-0.307C340.197,236.747,338.242,237.104,336.597,235.813z"/>
	<path fill="#25BDA1" d="M368.208,276.271c0.017-11.756,0.03-23.51,0.045-35.267c0.45,0.722,0.438,1.533,0.438,2.338
		c0.003,10.209,0.005,20.418,0,30.628C368.688,274.768,368.794,275.594,368.208,276.271z"/>
	<path fill="#25BDA1" d="M362.488,276.201c1.328,0.193,2.774-0.42,3.977,0.6c-8.107,0.061-16.216,0.135-24.324,0.176
		c-3.639,0.019-4.082,0.508-4.044-3.985c0.841,0.431,0.766,1.266,0.937,2.015c0.255,1.124,0.829,1.182,1.562,0.352
		c0.434-0.276,0.902-0.395,1.413-0.361c5.185,0.211,10.369,0.036,15.555,0.107C359.273,275.127,361.055,274.907,362.488,276.201z"/>
	<path fill="#25BDA1" d="M368.044,238.889c-1.563-0.351-3.526,0.914-4.677-1.141C364.809,238.612,366.73,237.508,368.044,238.889z"
		/>
	<path fill="#25BDA1" d="M367.403,276.8c0.273-0.18,0.55-0.364,0.825-0.545C368.18,276.777,367.872,276.912,367.403,276.8z"/>
	<path fill="#FDFEFE" d="M341.383,275.469l-0.384-0.123l-0.405,0.01c-1.055-1.752-0.445-3.763-0.875-5.613
		c-1.742-4.336-1.677-8.68-0.052-13.029c0.049-2.633,0.097-5.263,0.144-7.893c0.178-0.422,0.488-0.723,0.862-0.967
		c2.135,0.076,4.271,0.256,6.396-0.117c0.529-0.372,0.329-1.092,0.721-1.527c0.043-1.845,0.087-3.688,0.128-5.531
		c0.691-0.957,1.891-0.343,2.717-0.88c4.909-0.002,9.817-0.003,14.729-0.003c1.372,0.253,1.576,1.26,1.573,2.417
		c-0.03,10.763,0.063,21.522-0.039,32.283c-0.006,0.551-0.446,0.597-0.726,0.841c-1.221,0.041-2.442,0.077-3.664,0.115
		C355.467,276.035,348.426,276.011,341.383,275.469z"/>
	<path fill="#FEFFFF" d="M315.439,221.109c1.632,10.253,6.595,18.415,12.229,26.249c0.922,1.283,1.222,2.463-0.369,3.401
		c-6.137,3.634-12.291,7.241-18.645,10.98c-0.762-1.257-0.533-2.337-0.535-3.335c-0.021-9.604,0.106-19.209-0.087-28.808
		c-0.06-2.929,0.628-4.907,3.386-6.096C312.644,222.978,313.733,222.141,315.439,221.109z"/>
	<path fill="#FEFFFF" d="M286.322,218.094c0,12.094,0,23.29-0.003,34.483c0,0.944,0.042,1.903-0.927,2.507
		c-3.497,2.18-6.99,4.371-10.271,6.425c-1.035-0.647-0.866-1.241-0.867-1.737c-0.016-10.526,0.021-21.055-0.046-31.583
		c-0.014-1.832,0.573-3.011,2.166-3.938C279.489,222.436,282.515,220.463,286.322,218.094z"/>
	<path fill="#FEFFFF" d="M303.299,262.029c-4.037-2.521-7.315-4.59-10.62-6.621c-0.992-0.61-1.562-1.357-1.558-2.6
		c0.023-11.287,0.015-22.573,0.015-34.543c4.28,2.19,7.769,4.613,11.346,6.874c0.81,0.51,0.814,1.335,0.814,2.143
		C303.302,238.585,303.299,249.889,303.299,262.029z"/>
	<path fill="#F8FDFC" d="M339.116,246.164c-0.214,0.118-0.306,0.301-0.268,0.542c-1.016,6.847,0.534,13.681,0.109,20.53
		c-0.165,2.712-0.695,4.664-4.055,3.271c-0.01-9.005,0.054-18.014-0.073-27.017c-0.04-2.766,0.344-5.311,1.766-7.679
		c7.565-0.038,15.13-0.041,22.693-0.144c1.688-0.022,2.595,0.425,2.35,2.256c-3.401,1.152-6.906,0.262-10.354,0.545
		c-1.461,0.122-2.97-0.323-4.39,0.349c-0.28-0.044-0.507,0.048-0.675,0.277c-0.296,0.136-0.537,0.337-0.713,0.611l-0.057,0.053
		c-0.29,0.213-0.537,0.468-0.737,0.766l-0.066,0.076c-0.299,0.188-0.536,0.435-0.719,0.738l-0.089,0.094
		c-0.304,0.176-0.547,0.411-0.722,0.721l-0.09,0.091c-0.307,0.174-0.547,0.414-0.722,0.72l-0.093,0.092
		c-0.306,0.174-0.543,0.416-0.719,0.719l-0.093,0.092c-0.306,0.177-0.544,0.419-0.727,0.719l-0.088,0.085
		c-0.301,0.19-0.556,0.427-0.759,0.722l-0.06,0.055C339.496,245.632,339.275,245.872,339.116,246.164z"/>
	<path fill="#FDFEFE" d="M335.53,220.223c-0.056,3.764-3.288,6.803-7.147,6.718c-3.91-0.087-6.776-3.155-6.634-7.1
		c0.134-3.604,3.242-6.633,6.817-6.649C332.188,213.176,335.581,216.604,335.53,220.223z"/>
	<path fill="#E9F8F6" d="M333.183,242.65c0,7.645,0.003,14.354-0.004,21.063c0,0.945,0.05,1.984-1.292,2.078
		c-1.265,0.089-1.63-0.781-1.646-1.811c-0.08-5.523-0.181-11.049-0.146-16.574C330.106,245.721,331.294,244.523,333.183,242.65z"/>
	<path fill="#EFFAF8" d="M356.757,233.919c-6.187,0.011-12.37,0.023-18.557,0.036l0.017,0.025c-0.555-0.493-0.54-1.025-0.102-1.585
		c0.716-1.319,1.787-1.755,3.313-1.719c4.313,0.101,8.631-0.001,12.948,0.05C356.864,230.758,356.864,230.822,356.757,233.919z"/>
	<path fill="#26BEA2" d="M334.904,270.508c3.189,0.01,3.245,0.01,3.259-2.732c0.023-5.615-0.035-11.229-0.017-16.842
		c0.005-1.434-0.393-2.965,0.702-4.228c0.034,2.354,0.061,4.714,0.106,7.071c0.021,1.024-0.21,2.121,0.711,2.935
		c0.171,4.343,0.337,8.685,0.052,13.029C338.31,271.23,336.843,272.35,334.904,270.508z"/>
	<path fill="#21BEA1" d="M338.115,232.396c0.033,0.529,0.066,1.056,0.102,1.585C337.244,233.512,337.311,232.979,338.115,232.396z"
		/>
	<path fill="#25BDA1" d="M366.173,275.335c0.578-1.138,0.458-2.369,0.459-3.58c0.006-9.332,0.012-18.663-0.008-27.995
		c-0.001-1.433,0.417-3.045-1.261-3.966c1.319-0.054,1.98,0.563,1.978,1.903c-0.006,1.875,0.017,3.753,0.018,5.627
		c0.001,8.041,0.032,16.082-0.031,24.121C367.315,272.795,368.029,274.484,366.173,275.335z"/>
	<path fill="#37B89A" d="M341.383,275.469c7.041-0.006,14.084-0.013,21.124-0.019c-0.015,0.25-0.021,0.5-0.019,0.751
		c-5.769,0.009-11.535,0.04-17.302,0.006C343.894,276.201,342.47,276.626,341.383,275.469z"/>
	<path fill="#D2F3EF" d="M341.897,245.5c1.191-1.159,2.382-2.314,3.573-3.475c0.322-0.149,0.569-0.066,0.739,0.246
		c-0.002,1.23-0.004,2.465-0.005,3.699C344.657,246.846,343.153,247.3,341.897,245.5z"/>
	<path fill="#25BDA1" d="M346.896,238.818c1.296-1.063,2.826-0.627,4.27-0.63c3.495-0.008,6.99,0.142,10.475-0.264
		c-0.774,1.311-2.076,0.945-3.216,0.949C354.581,238.889,350.738,238.843,346.896,238.818z"/>
	<path fill="#25BDA1" d="M341.897,245.5c1.313,1.275,2.823,0.736,4.309,0.473c-1.096,1.685-2.698,1.014-4.128,0.785
		C341.559,246.675,341.559,245.986,341.897,245.5z"/>
	<path fill="#25BDA1" d="M350.635,239.797c-0.904,0.293-1.81,0.586-2.717,0.878C348.517,239.433,349.622,239.761,350.635,239.797z"
		/>
	<path fill="#25BDA1" d="M347.79,246.208c0.091,0.666,0.245,1.36-0.721,1.526C347.08,247.116,347.202,246.552,347.79,246.208z"/>
	<path fill="#25BDA1" d="M345.508,239.707c0.091-0.375,0.3-0.613,0.713-0.611C345.983,239.299,345.745,239.503,345.508,239.707z"/>
	<path fill="#25BDA1" d="M344.714,240.523c0.072-0.423,0.315-0.679,0.737-0.765C345.205,240.014,344.96,240.27,344.714,240.523z"/>
	<path fill="#25BDA1" d="M343.929,241.34c0.239-0.246,0.479-0.492,0.72-0.738C344.407,240.848,344.168,241.094,343.929,241.34z"/>
	<path fill="#25BDA1" d="M343.118,242.152c0.084-0.397,0.322-0.639,0.722-0.723C343.598,241.672,343.358,241.913,343.118,242.152z"
		/>
	<path fill="#25BDA1" d="M346.211,242.271c-0.229-0.135-0.477-0.217-0.739-0.246C345.893,241.575,346.088,241.814,346.211,242.271z"
		/>
	<path fill="#25BDA1" d="M342.308,242.964c0.083-0.397,0.322-0.639,0.722-0.72C342.786,242.48,342.546,242.725,342.308,242.964z"/>
	<path fill="#25BDA1" d="M341.496,243.773c0.083-0.396,0.324-0.637,0.72-0.719C341.977,243.294,341.735,243.536,341.496,243.773z"/>
	<path fill="#25BDA1" d="M340.678,244.584c0.088-0.395,0.33-0.634,0.727-0.719C341.162,244.105,340.919,244.346,340.678,244.584z"/>
	<path fill="#25BDA1" d="M339.831,245.391c0.099-0.401,0.353-0.646,0.759-0.722C340.337,244.908,340.084,245.148,339.831,245.391z"
		/>
	<path fill="#25BDA1" d="M339.116,246.164c0.014-0.426,0.259-0.643,0.656-0.721C339.555,245.684,339.334,245.923,339.116,246.164z"
		/>
	<path fill="#25BDA1" d="M340.673,247.854c-0.287,0.321-0.574,0.644-0.862,0.965C339.913,248.332,340.195,248.005,340.673,247.854z"
		/>
	<path fill="#21B89B" d="M363.877,253.204c-3.588,1.18-16.846,1.276-20.457,0.397C345.261,252.355,358.011,252,363.877,253.204z"/>
	<path fill="#12B89A" d="M342.81,270.17c3.653-1.456,17.574-1.418,20.296-0.204C360.488,270.878,348.004,271.08,342.81,270.17z"/>
	<path fill="#13B89B" d="M343.496,258.678c3.194-0.828,16.424-0.81,19.513,0.043c-0.043,0.69-0.571,0.891-1.098,0.891
		c-5.914,0.003-11.829-0.016-17.746-0.077C343.85,259.531,343.424,259.198,343.496,258.678z"/>
	<path fill="#13B89A" d="M363.013,264.538c-6.486,0.819-12.947,1.206-19.397-0.043C350.085,263.564,356.565,263.868,363.013,264.538
		z"/>
	<path fill="#20B89A" d="M363.15,247.582c-2.392,1.143-7.936,1.292-11.757,0.316C353.349,246.605,359.551,246.439,363.15,247.582z"
		/>
</g>
</svg>
