<?xml version="1.0" encoding="utf-8"?>
<!-- Generator: Adobe Illustrator 16.0.0, SVG Export Plug-In . SVG Version: 6.00 Build 0)  -->
<!DOCTYPE svg PUBLIC "-//W3C//DTD SVG 1.1//EN" "http://www.w3.org/Graphics/SVG/1.1/DTD/svg11.dtd">
<svg version="1.1" id="Layer_1" xmlns="http://www.w3.org/2000/svg" xmlns:xlink="http://www.w3.org/1999/xlink" x="0px" y="0px"
	 width="640px" height="480px" viewBox="0 0 640 480" enable-background="new 0 0 640 480" xml:space="preserve">
<g>
	<path fill-rule="evenodd" clip-rule="evenodd" fill="#12B89A" d="M338.097,272.992c-0.673-0.061-1.353-0.218-2.016-0.158
		c-1.946,0.174-3.154-0.365-2.95-2.614c0.154-1.739-0.77-2.412-2.434-2.396c-1.748,0.019-2.28-1.031-2.246-2.643
		c0.06-2.694,0.017-5.392,0.017-7.981c-1.425-0.883-2.227,0.174-3.069,0.662c-5.607,3.256-11.219,6.509-16.728,9.925
		c-2.122,1.315-3.839,1.348-5.926-0.07c-3.797-2.58-7.813-4.837-11.617-7.404c-1.724-1.165-3.045-1.079-4.722,0.047
		c-3.588,2.406-7.297,4.634-10.964,6.928c-0.8,0.5-1.578,1.076-2.445,1.42c-1.674,0.664-3.025,0.021-3.434-1.7
		c-0.246-1.031-0.183-2.146-0.185-3.224c-0.011-12.298,0.092-24.6-0.075-36.897c-0.044-3.128,1.043-4.989,3.688-6.498
		c4.222-2.404,8.375-4.966,12.367-7.73c2.512-1.738,4.515-1.649,6.966,0.082c3.415,2.414,7.123,4.406,10.597,6.74
		c1.876,1.261,3.42,1.695,5.402,0.13c1.894-1.499,4.073-2.645,6.155-3.904c1.398-0.849,2.536-1.89,3.552-3.22
		c3.842-5.035,9.564-6.698,15.115-4.594c5.421,2.059,8.411,6.849,8.32,13.057c-0.037,2.588-1.05,4.987-1.313,7.744
		c3.545,0.583,7.024,0.174,10.479,0.282c1.484,0.045,2.974-0.011,4.46,0.01c3.115,0.045,3.146,0.047,3.681,3.156
		c0.149,0.874,0.45,1.533,1.274,1.899c-0.924,2.415-2.277,1.616-3.678,0.502c-0.657-1.326-1.343-2.641-3.134-2.605
		c-4.497,0.091-9.024-0.587-13.475,0.503c-0.6,0.341-1.05,0.8-1.172,1.523c-0.058,0.358-0.163,0.693-0.308,1.023
		c-0.514,0.829-0.91,1.706-1.242,2.619c-0.841,2.054-0.966,4.205-0.954,6.381c0.037,8.247-0.068,16.491,0.068,24.721
		c0.206,1.099,0.682,1.742,1.941,1.224c0.727-0.3,1.497-0.74,2.155,0.164c0.691,1.787,0.952,3.628,0.748,5.532
		c-1.05,1.448-1.893,1.368-2.396-0.378C338.388,274.514,338.788,273.632,338.097,272.992z"/>
	<path fill-rule="evenodd" clip-rule="evenodd" fill="#21BEA1" d="M336.597,235.813c0.536-0.618,1.069-1.237,1.604-1.857
		c6.182-1.974,12.367-1.904,18.557-0.036c1.054,1.249,2.149,1.268,3.289,0.12c2.686-0.577,3.672-0.179,3.321,3.709
		c1.234,1.711,3.305-0.006,4.677,1.141c0.439,0.671,0.427,1.382,0.209,2.116c0.479,11.756,0.573,23.512-0.045,35.267l0.021-0.017
		c-0.259,0.205-0.535,0.387-0.825,0.545c-0.312,0.001-0.625,0.001-0.938,0.001c-1.341-0.512-2.847,0.228-4.151-0.545
		c-0.123-0.424-0.038-0.8,0.253-1.129c0.955-0.744,2.332-0.716,3.129-1.74c1.102-2.885,0.446-5.869,0.499-8.791
		c0.113-6.316,0.054-12.638,0.021-18.957c-0.01-1.561,0.41-3.312-1.397-4.3c-4.407-0.955-8.867-0.184-13.278-0.479
		c-0.873,0.045-1.844-0.184-2.362,0.856c-0.479,1.458-0.168,3.03-0.708,4.472c-0.293,0.779-0.711,1.471-1.382,1.986
		c-1.608,0.948-3.466,0.473-5.153,0.906c-0.485,0.261-0.796,0.662-0.951,1.196c-0.464,2.199,0.536,4.669-1.248,6.604
		c-2.313-0.659-1.727-2.634-1.855-4.225c-0.118-1.443-0.059-2.9,0.022-4.348c0.015-0.416,0.086-0.831,0.191-1.233
		c0.103-0.377,0.262-0.74,0.448-1.081c0.104-0.151,0.219-0.306,0.318-0.459c0.214-0.274,0.463-0.533,0.713-0.774
		c0.116-0.114,0.247-0.226,0.364-0.341c0.222-0.22,0.464-0.431,0.701-0.638c0.107-0.104,0.229-0.203,0.336-0.308
		c0.206-0.207,0.429-0.406,0.646-0.604c0.102-0.103,0.211-0.198,0.313-0.3c0.196-0.209,0.404-0.405,0.613-0.603
		c0.101-0.105,0.207-0.2,0.307-0.308c0.196-0.217,0.407-0.421,0.614-0.63c0.104-0.112,0.211-0.215,0.313-0.328
		c0.207-0.239,0.427-0.464,0.647-0.693c0.111-0.124,0.226-0.238,0.337-0.364c0.235-0.264,0.485-0.498,0.753-0.729
		c0.146-0.115,0.293-0.215,0.439-0.328c0.327-0.202,0.672-0.349,1.031-0.468c0.374-0.111,0.753-0.183,1.135-0.227
		c3.65-0.569,7.43,0.776,10.965-0.774c-5.696-0.677-11.367-0.104-17.026-0.307C340.197,236.747,338.242,237.104,336.597,235.813z"/>
	<path fill-rule="evenodd" clip-rule="evenodd" fill="#25BDA1" d="M368.208,276.271c0.017-11.755,0.03-23.509,0.045-35.266
		c0.45,0.721,0.438,1.533,0.438,2.338c0.003,10.209,0.005,20.418,0,30.628C368.688,274.767,368.794,275.594,368.208,276.271z"/>
	<path fill-rule="evenodd" clip-rule="evenodd" fill="#25BDA1" d="M362.488,276.201c1.328,0.193,2.775-0.42,3.977,0.6
		c-8.108,0.061-16.216,0.134-24.324,0.176c-3.639,0.018-4.082,0.508-4.044-3.986c0.841,0.431,0.765,1.266,0.936,2.015
		c0.255,1.124,0.829,1.181,1.562,0.351c0.433-0.276,0.902-0.394,1.413-0.361c5.184,0.211,10.369,0.036,15.555,0.108
		C359.273,275.127,361.055,274.907,362.488,276.201z"/>
	<path fill-rule="evenodd" clip-rule="evenodd" fill="#25BDA1" d="M368.044,238.889c-1.564-0.351-3.526,0.914-4.677-1.141
		C364.809,238.612,366.73,237.508,368.044,238.889z"/>
	<path fill-rule="evenodd" clip-rule="evenodd" fill="#25BDA1" d="M367.403,276.8c0.274-0.18,0.55-0.364,0.825-0.545
		C368.18,276.778,367.872,276.912,367.403,276.8z"/>
	<path fill-rule="evenodd" clip-rule="evenodd" fill="#FDFEFE" d="M341.383,275.469l-0.384-0.123l-0.405,0.01
		c-1.055-1.753-0.446-3.763-0.875-5.614c-1.742-4.336-1.677-8.68-0.052-13.029c0.049-2.633,0.097-5.263,0.144-7.893
		c0.177-0.421,0.488-0.723,0.862-0.966c2.135,0.076,4.271,0.255,6.396-0.118c0.53-0.372,0.329-1.091,0.721-1.527
		c0.043-1.845,0.087-3.688,0.128-5.531c0.691-0.957,1.891-0.343,2.717-0.88c4.909-0.002,9.817-0.003,14.729-0.003
		c1.372,0.253,1.576,1.26,1.573,2.417c-0.03,10.762,0.064,21.523-0.039,32.283c-0.005,0.551-0.446,0.597-0.725,0.841
		c-1.221,0.041-2.443,0.077-3.664,0.115C355.467,276.035,348.426,276.011,341.383,275.469z"/>
	<path fill-rule="evenodd" clip-rule="evenodd" fill="#FEFFFF" d="M315.439,221.109c1.632,10.253,6.595,18.415,12.229,26.249
		c0.922,1.282,1.222,2.462-0.369,3.401c-6.137,3.633-12.291,7.241-18.645,10.98c-0.761-1.257-0.533-2.336-0.535-3.335
		c-0.021-9.604,0.107-19.209-0.087-28.808c-0.059-2.929,0.628-4.907,3.386-6.096C312.644,222.978,313.733,222.141,315.439,221.109z"
		/>
	<path fill-rule="evenodd" clip-rule="evenodd" fill="#FEFFFF" d="M286.322,218.094c0,12.094,0,23.29-0.003,34.483
		c0,0.945,0.042,1.903-0.927,2.507c-3.497,2.18-6.99,4.371-10.271,6.425c-1.035-0.648-0.866-1.241-0.867-1.737
		c-0.016-10.527,0.021-21.055-0.046-31.584c-0.014-1.832,0.573-3.011,2.166-3.938C279.489,222.436,282.515,220.463,286.322,218.094z
		"/>
	<path fill-rule="evenodd" clip-rule="evenodd" fill="#FEFFFF" d="M303.299,262.029c-4.037-2.521-7.315-4.589-10.62-6.621
		c-0.992-0.61-1.562-1.357-1.558-2.599c0.023-11.287,0.015-22.573,0.015-34.544c4.28,2.19,7.769,4.613,11.346,6.874
		c0.81,0.51,0.814,1.335,0.814,2.143C303.302,238.585,303.299,249.888,303.299,262.029z"/>
	<path fill-rule="evenodd" clip-rule="evenodd" fill="#F8FDFC" d="M339.116,246.164c-0.214,0.118-0.305,0.301-0.267,0.542
		c-1.016,6.847,0.534,13.681,0.109,20.53c-0.165,2.712-0.695,4.665-4.055,3.271c-0.009-9.005,0.054-18.014-0.073-27.017
		c-0.04-2.766,0.344-5.311,1.766-7.679c7.565-0.038,15.13-0.041,22.693-0.144c1.688-0.022,2.595,0.425,2.35,2.256
		c-3.402,1.152-6.907,0.262-10.355,0.545c-1.461,0.122-2.97-0.323-4.389,0.349c-0.281-0.044-0.507,0.048-0.675,0.277
		c-0.296,0.136-0.537,0.337-0.713,0.611l-0.057,0.053c-0.29,0.213-0.537,0.468-0.737,0.765l-0.066,0.077
		c-0.299,0.188-0.537,0.434-0.719,0.738l-0.089,0.093c-0.304,0.177-0.547,0.412-0.722,0.721l-0.09,0.091
		c-0.306,0.174-0.547,0.414-0.721,0.72l-0.093,0.092c-0.306,0.174-0.543,0.416-0.719,0.719l-0.093,0.091
		c-0.305,0.177-0.544,0.419-0.726,0.719l-0.088,0.085c-0.301,0.19-0.556,0.427-0.759,0.722l-0.059,0.055
		C339.496,245.632,339.275,245.872,339.116,246.164z"/>
	<path fill-rule="evenodd" clip-rule="evenodd" fill="#FDFEFE" d="M335.53,220.223c-0.055,3.764-3.288,6.803-7.147,6.718
		c-3.91-0.087-6.777-3.155-6.634-7.1c0.134-3.604,3.242-6.633,6.817-6.649C332.188,213.176,335.581,216.604,335.53,220.223z"/>
	<path fill-rule="evenodd" clip-rule="evenodd" fill="#E9F8F6" d="M333.183,242.65c0,7.645,0.003,14.354-0.004,21.063
		c0,0.945,0.049,1.985-1.292,2.078c-1.265,0.089-1.63-0.781-1.646-1.81c-0.08-5.524-0.18-11.049-0.145-16.575
		C330.106,245.721,331.294,244.524,333.183,242.65z"/>
	<path fill-rule="evenodd" clip-rule="evenodd" fill="#EFFAF8" d="M356.757,233.919c-6.187,0.011-12.37,0.023-18.557,0.036
		l0.017,0.025c-0.555-0.493-0.54-1.025-0.102-1.585c0.716-1.319,1.787-1.755,3.313-1.719c4.313,0.101,8.631-0.001,12.948,0.05
		C356.864,230.758,356.864,230.822,356.757,233.919z"/>
	<path fill-rule="evenodd" clip-rule="evenodd" fill="#26BEA2" d="M334.904,270.508c3.19,0.009,3.245,0.009,3.259-2.733
		c0.024-5.615-0.035-11.229-0.017-16.842c0.005-1.433-0.392-2.964,0.703-4.227c0.034,2.354,0.06,4.714,0.106,7.071
		c0.021,1.025-0.21,2.122,0.711,2.935c0.171,4.343,0.337,8.685,0.052,13.029C338.31,271.231,336.843,272.35,334.904,270.508z"/>
	<path fill-rule="evenodd" clip-rule="evenodd" fill="#21BEA1" d="M338.115,232.396c0.033,0.529,0.067,1.056,0.102,1.585
		C337.244,233.512,337.311,232.979,338.115,232.396z"/>
	<path fill-rule="evenodd" clip-rule="evenodd" fill="#25BDA1" d="M366.173,275.335c0.578-1.138,0.458-2.369,0.459-3.58
		c0.006-9.332,0.012-18.663-0.008-27.995c-0.001-1.433,0.417-3.045-1.261-3.966c1.32-0.054,1.981,0.563,1.978,1.903
		c-0.006,1.875,0.016,3.753,0.017,5.627c0.001,8.041,0.033,16.082-0.031,24.122C367.315,272.795,368.029,274.485,366.173,275.335z"
		/>
	<path fill-rule="evenodd" clip-rule="evenodd" fill="#37B89A" d="M341.383,275.469c7.041-0.006,14.084-0.013,21.124-0.019
		c-0.015,0.25-0.021,0.5-0.019,0.751c-5.768,0.009-11.535,0.04-17.301,0.006C343.894,276.201,342.47,276.626,341.383,275.469z"/>
	<path fill-rule="evenodd" clip-rule="evenodd" fill="#D2F3EF" d="M341.897,245.5c1.192-1.159,2.382-2.315,3.574-3.474
		c0.322-0.15,0.569-0.067,0.739,0.245c-0.002,1.231-0.004,2.465-0.005,3.7C344.657,246.845,343.153,247.3,341.897,245.5z"/>
	<path fill-rule="evenodd" clip-rule="evenodd" fill="#25BDA1" d="M346.896,238.818c1.296-1.063,2.827-0.627,4.27-0.63
		c3.495-0.008,6.99,0.142,10.475-0.264c-0.775,1.311-2.077,0.945-3.216,0.949C354.581,238.889,350.738,238.843,346.896,238.818z"/>
	<path fill-rule="evenodd" clip-rule="evenodd" fill="#25BDA1" d="M341.897,245.5c1.313,1.275,2.824,0.737,4.309,0.472
		c-1.096,1.685-2.698,1.014-4.128,0.786C341.559,246.675,341.559,245.987,341.897,245.5z"/>
	<path fill-rule="evenodd" clip-rule="evenodd" fill="#25BDA1" d="M350.635,239.797c-0.905,0.293-1.81,0.586-2.717,0.878
		C348.517,239.433,349.622,239.761,350.635,239.797z"/>
	<path fill-rule="evenodd" clip-rule="evenodd" fill="#25BDA1" d="M347.79,246.208c0.091,0.666,0.245,1.36-0.721,1.527
		C347.08,247.116,347.202,246.552,347.79,246.208z"/>
	<path fill-rule="evenodd" clip-rule="evenodd" fill="#25BDA1" d="M345.508,239.707c0.091-0.375,0.3-0.613,0.713-0.611
		C345.983,239.299,345.745,239.503,345.508,239.707z"/>
	<path fill-rule="evenodd" clip-rule="evenodd" fill="#25BDA1" d="M344.714,240.524c0.072-0.424,0.315-0.68,0.737-0.765
		C345.205,240.014,344.96,240.27,344.714,240.524z"/>
	<path fill-rule="evenodd" clip-rule="evenodd" fill="#25BDA1" d="M343.929,241.34c0.239-0.246,0.479-0.492,0.719-0.738
		C344.407,240.848,344.168,241.094,343.929,241.34z"/>
	<path fill-rule="evenodd" clip-rule="evenodd" fill="#25BDA1" d="M343.118,242.153c0.084-0.398,0.322-0.639,0.722-0.723
		C343.598,241.672,343.358,241.913,343.118,242.153z"/>
	<path fill-rule="evenodd" clip-rule="evenodd" fill="#25BDA1" d="M346.211,242.271c-0.229-0.134-0.477-0.216-0.739-0.245
		C345.893,241.575,346.088,241.814,346.211,242.271z"/>
	<path fill-rule="evenodd" clip-rule="evenodd" fill="#25BDA1" d="M342.308,242.964c0.083-0.397,0.322-0.639,0.721-0.72
		C342.786,242.481,342.546,242.724,342.308,242.964z"/>
	<path fill-rule="evenodd" clip-rule="evenodd" fill="#25BDA1" d="M341.496,243.774c0.083-0.396,0.324-0.637,0.72-0.719
		C341.977,243.294,341.735,243.536,341.496,243.774z"/>
	<path fill-rule="evenodd" clip-rule="evenodd" fill="#25BDA1" d="M340.678,244.584c0.088-0.394,0.33-0.634,0.726-0.719
		C341.162,244.106,340.919,244.345,340.678,244.584z"/>
	<path fill-rule="evenodd" clip-rule="evenodd" fill="#25BDA1" d="M339.831,245.391c0.099-0.402,0.353-0.646,0.759-0.722
		C340.337,244.908,340.084,245.148,339.831,245.391z"/>
	<path fill-rule="evenodd" clip-rule="evenodd" fill="#25BDA1" d="M339.116,246.164c0.014-0.426,0.259-0.643,0.656-0.72
		C339.555,245.684,339.334,245.923,339.116,246.164z"/>
	<path fill-rule="evenodd" clip-rule="evenodd" fill="#25BDA1" d="M340.673,247.854c-0.287,0.321-0.574,0.643-0.862,0.965
		C339.913,248.332,340.195,248.005,340.673,247.854z"/>
	<path fill-rule="evenodd" clip-rule="evenodd" fill="#21B89B" d="M363.877,253.204c-3.588,1.18-16.846,1.276-20.457,0.398
		C345.261,252.356,358.011,252,363.877,253.204z"/>
	<path fill-rule="evenodd" clip-rule="evenodd" fill="#12B89A" d="M342.81,270.17c3.653-1.456,17.574-1.418,20.295-0.204
		C360.488,270.878,348.004,271.08,342.81,270.17z"/>
	<path fill-rule="evenodd" clip-rule="evenodd" fill="#13B89B" d="M343.496,258.678c3.194-0.829,16.424-0.81,19.513,0.042
		c-0.043,0.691-0.571,0.891-1.098,0.892c-5.914,0.002-11.829-0.016-17.746-0.078C343.85,259.531,343.424,259.198,343.496,258.678z"
		/>
	<path fill-rule="evenodd" clip-rule="evenodd" fill="#13B89A" d="M363.013,264.538c-6.487,0.819-12.948,1.206-19.398-0.043
		C350.085,263.564,356.565,263.868,363.013,264.538z"/>
	<path fill-rule="evenodd" clip-rule="evenodd" fill="#20B89A" d="M363.15,247.582c-2.391,1.143-7.935,1.292-11.756,0.317
		C353.349,246.605,359.551,246.439,363.15,247.582z"/>
</g>
</svg>
