<?xml version="1.0" encoding="utf-8"?>
<!-- Generator: Adobe Illustrator 16.0.0, SVG Export Plug-In . SVG Version: 6.00 Build 0)  -->
<!DOCTYPE svg PUBLIC "-//W3C//DTD SVG 1.1//EN" "http://www.w3.org/Graphics/SVG/1.1/DTD/svg11.dtd">
<svg version="1.1" id="Layer_1" xmlns="http://www.w3.org/2000/svg" xmlns:xlink="http://www.w3.org/1999/xlink" x="0px" y="0px"
	 width="75px" height="75px" viewBox="0 0 75 75" enable-background="new 0 0 75 75" xml:space="preserve">
<g>
	<g>
		<path fill="#3C3C3C" d="M37.5,3C56.523,3,72,18.477,72,37.5S56.523,72,37.5,72S3,56.523,3,37.5S18.477,3,37.5,3 M37.5,0
			C16.789,0,0,16.789,0,37.5S16.789,75,37.5,75C58.209,75,75,58.211,75,37.5S58.209,0,37.5,0L37.5,0z"/>
	</g>
	<path fill-rule="evenodd" clip-rule="evenodd" fill="none" stroke="#3C3C3C" stroke-miterlimit="10" stroke-dasharray="2" d="
		M43.818,41.537c1.178,0,2.268,0,3.443,0c0,0.188,0,0.361,0,0.533c0,1.238,0.016,2.477-0.008,3.715
		c-0.008,0.381,0.1,0.637,0.398,0.883c1.51,1.258,2.996,2.545,4.504,3.807c0.264,0.221,0.371,0.445,0.359,0.791
		c-0.025,0.795-0.008,1.594-0.008,2.439c-1.172,0-2.291,0-3.48,0c0,3.514,0,6.979,0,10.473c-7,0-13.93,0-20.93,0
		c0-3.455,0-6.92,0-10.434c-1.186,0-2.307,0-3.51,0c0-0.984-0.016-1.924,0.016-2.859c0.004-0.135,0.209-0.281,0.346-0.389
		c4.404-3.473,8.813-6.934,13.211-10.412c0.309-0.244,0.5-0.223,0.795,0.004c1.4,1.074,2.818,2.127,4.232,3.186
		c0.17,0.129,0.344,0.25,0.631,0.459C43.818,42.92,43.818,42.229,43.818,41.537z"/>
	<g>
		<path fill="#3C3C3C" stroke="#3C3C3C" stroke-width="0.5" stroke-miterlimit="10" d="M50.918,18.615
			c0,0.691-0.189,1.307-0.563,1.848l-3.689,5.367v5.73h-2.535V26.4c0-0.76,0.176-1.387,0.525-1.881l3.746-5.334v-6.438h-5.791v6.076
			h-2.516v-6.283c0-0.564,0.193-1.023,0.58-1.381c0.385-0.357,0.875-0.535,1.465-0.535h6.732c0.604,0,1.094,0.178,1.475,0.535
			c0.379,0.357,0.57,0.816,0.57,1.381V18.615z M46.773,37.635h-2.75v-3.037h2.75V37.635z"/>
	</g>
</g>
</svg>
